<?xml version="1.0" encoding="UTF-8" standalone="no"?><!-- Generator: Gravit.io --><svg xmlns="http://www.w3.org/2000/svg" xmlns:xlink="http://www.w3.org/1999/xlink" style="isolation:isolate" viewBox="2347.873 2008.638 234.085 202.723" width="234.085" height="202.723"><g><polygon points="2523.437,2211.362,2406.394,2211.362,2347.873,2110,2406.394,2008.638,2523.437,2008.638,2581.958,2110" fill="none"/><path d=" M 2407.806 2160.681 Q 2437.76 2140.706 2452.737 2140.706 C 2467.714 2140.706 2485.499 2151.665 2499.166 2151.803 Q 2512.832 2151.942 2536.608 2140.706 Q 2515.827 2160.681 2499.166 2160.681 C 2482.504 2160.681 2466.965 2152.081 2452.737 2151.803 Q 2438.509 2151.526 2407.806 2160.681 Z " fill="rgb(206,146,72)"/><path d=" M 2377.134 2124.543 Q 2407.087 2104.569 2422.064 2104.569 C 2437.041 2104.569 2454.827 2115.527 2468.493 2115.666 Q 2482.159 2115.805 2505.935 2104.569 Q 2485.155 2124.543 2468.493 2124.543 C 2451.831 2124.543 2436.293 2115.943 2422.064 2115.666 Q 2407.836 2115.388 2377.134 2124.543 Z " fill="rgb(206,146,72)"/><path d=" M 2407.806 2082.772 Q 2437.76 2062.798 2452.737 2062.798 C 2467.714 2062.798 2485.499 2073.756 2499.166 2073.895 Q 2512.832 2074.033 2536.608 2062.798 Q 2515.827 2082.772 2499.166 2082.772 C 2482.504 2082.772 2466.965 2074.172 2452.737 2073.895 Q 2438.509 2073.617 2407.806 2082.772 Z " fill="rgb(206,146,72)"/></g></svg>