<?xml version="1.0" encoding="UTF-8" standalone="no"?><!-- Generator: Gravit.io --><svg xmlns="http://www.w3.org/2000/svg" xmlns:xlink="http://www.w3.org/1999/xlink" style="isolation:isolate" viewBox="2816.042 2008.638 234.085 202.723" width="234.085" height="202.723"><g><polygon points="2991.606,2211.362,2874.563,2211.362,2816.042,2110,2874.563,2008.638,2991.606,2008.638,3050.127,2110" fill="none"/><path d=" M 2899.849 2131.478 Q 2932.457 2097.56 2961.803 2097.56 Q 2991.15 2097.56 3022.127 2131.478 Q 2997.671 2111.379 2961.803 2111.379 Q 2925.935 2111.379 2899.849 2131.478 Z " fill="rgb(206,146,72)"/><path d=" M 2884.987 2169 Q 2909.877 2139.088 2932.278 2139.088 Q 2954.679 2139.088 2978.324 2169 Q 2959.657 2151.038 2932.278 2151.038 Q 2904.899 2151.038 2884.987 2169 Z " fill="rgb(206,146,72)"/><path d=" M 2844.043 2088.537 Q 2862.886 2065.892 2879.845 2065.892 Q 2896.804 2065.892 2914.705 2088.537 Q 2900.573 2079.731 2879.845 2079.731 Q 2859.117 2079.731 2844.043 2088.537 Z " fill="rgb(206,146,72)"/></g></svg>