<?xml version="1.0" encoding="UTF-8" standalone="no"?><!-- Generator: Gravit.io --><svg xmlns="http://www.w3.org/2000/svg" xmlns:xlink="http://www.w3.org/1999/xlink" style="isolation:isolate" viewBox="2816.042 2211.362 234.085 202.723" width="234.085" height="202.723"><g><polygon points="2991.606,2414.085,2874.563,2414.085,2816.042,2312.723,2874.563,2211.362,2991.606,2211.362,3050.127,2312.723" fill="none"/><path d=" M 2888.832 2379 Q 2915.578 2353.697 2928.951 2353.697 C 2942.324 2353.697 2958.204 2367.578 2970.407 2367.754 Q 2982.61 2367.93 3003.84 2353.697 Q 2985.285 2379 2970.407 2379 C 2955.53 2379 2941.655 2368.105 2928.951 2367.754 Q 2916.247 2367.403 2888.832 2379 Z " fill="rgb(206,146,72)"/><path d=" M 2874.563 2341.851 Q 2901.31 2316.548 2914.683 2316.548 C 2928.056 2316.548 2943.936 2330.43 2956.139 2330.605 Q 2968.342 2330.781 2989.571 2316.548 Q 2971.016 2341.851 2956.139 2341.851 C 2941.261 2341.851 2927.387 2330.957 2914.683 2330.605 Q 2901.978 2330.254 2874.563 2341.851 Z " fill="rgb(206,146,72)"/><path d=" M 2857.693 2284.232 Q 2880.353 2257 2900.747 2257 Q 2921.14 2257 2942.667 2284.232 Q 2925.672 2273.642 2900.747 2273.642 Q 2875.821 2273.642 2857.693 2284.232 Z " fill="rgb(206,146,72)"/></g></svg>