<?xml version="1.0" encoding="UTF-8" standalone="no"?><!-- Generator: Gravit.io --><svg xmlns="http://www.w3.org/2000/svg" xmlns:xlink="http://www.w3.org/1999/xlink" style="isolation:isolate" viewBox="2581.958 2211.362 234.085 202.723" width="234.085" height="202.723"><g><polygon points="2757.521,2414.085,2640.479,2414.085,2581.958,2312.723,2640.479,2211.362,2757.521,2211.362,2816.042,2312.723" fill="none"/><path d=" M 2633.794 2291.925 Q 2668.174 2269 2685.363 2269 C 2702.553 2269 2722.965 2281.577 2738.651 2281.736 Q 2754.336 2281.896 2781.625 2269 Q 2757.774 2291.925 2738.651 2291.925 C 2719.527 2291.925 2701.693 2282.055 2685.363 2281.736 Q 2669.033 2281.418 2633.794 2291.925 Z " fill="rgb(206,146,72)"/><path d=" M 2609.647 2350 Q 2638.152 2315.429 2663.806 2315.429 Q 2689.46 2315.429 2716.54 2350 Q 2695.161 2329.513 2663.806 2329.513 Q 2632.451 2329.513 2609.647 2350 Z " fill="rgb(206,146,72)"/></g></svg>