<?xml version="1.0" encoding="UTF-8" standalone="no"?><!-- Generator: Gravit.io --><svg xmlns="http://www.w3.org/2000/svg" xmlns:xlink="http://www.w3.org/1999/xlink" style="isolation:isolate" viewBox="2816.042 2414.085 234.085 202.723" width="234.085" height="202.723"><g><polygon points="2991.606,2616.808,2874.563,2616.808,2816.042,2515.447,2874.563,2414.085,2991.606,2414.085,3050.127,2515.447" fill="none"/><path d=" M 2842.172 2506 Q 2879.631 2478.021 2898.36 2478.021 C 2917.09 2478.021 2939.331 2493.371 2956.422 2493.565 Q 2973.513 2493.759 3003.246 2478.021 Q 2977.258 2506 2956.422 2506 C 2935.585 2506 2916.153 2493.953 2898.36 2493.565 Q 2880.567 2493.176 2842.172 2506 Z " fill="rgb(206,146,72)"/><path d=" M 2905.713 2560 Q 2932.769 2527.485 2957.119 2527.485 Q 2981.469 2527.485 3007.172 2560 Q 2986.88 2540.474 2957.119 2540.474 Q 2927.358 2540.474 2905.713 2560 Z " fill="rgb(206,146,72)"/></g></svg>