<?xml version="1.0" encoding="UTF-8" standalone="no"?><!-- Generator: Gravit.io --><svg xmlns="http://www.w3.org/2000/svg" xmlns:xlink="http://www.w3.org/1999/xlink" style="isolation:isolate" viewBox="0 0 200 200" width="200" height="200"><defs><clipPath id="_clipPath_8ubXXo4LkJ971nPDIxsnxdNLu6qU1wnI"><rect width="200" height="200"/></clipPath></defs><g clip-path="url(#_clipPath_8ubXXo4LkJ971nPDIxsnxdNLu6qU1wnI)"><path d=" M 78.437 110 L 78.437 135 L 78.437 135 L 68.437 145 L 68.437 170 L 102.395 170 L 118.437 170 L 130.605 170 L 126.575 140.495 L 126.575 140.495 L 126.575 97.461 L 126.575 97.461 L 131.563 97.461 L 126.542 91.436 L 116.5 65.327 L 106.458 91.436 L 101.991 96.796 L 93.437 78.261 L 83.006 100.862 L 81.29 104.294 L 75.584 110 L 78.437 110 Z  M 106.425 105.135 L 106.425 97.461 L 106.425 97.461 L 102.298 97.461 L 103.868 100.862 L 105.584 104.294 L 106.425 105.135 Z " fill-rule="evenodd" fill="rgb(107,38,67)" vector-effect="non-scaling-stroke" stroke-width="8" stroke="rgb(44,30,49)" stroke-linejoin="round" stroke-linecap="round" stroke-miterlimit="3"/><g><path d=" M 106.425 140.495 L 102.395 170 L 130.605 170 L 126.575 140.495 L 126.575 140.495 L 126.575 94.131 L 106.425 94.131 L 106.425 140.495 L 106.425 140.495 Z " fill-rule="evenodd" fill="rgb(107,38,67)"/><path d=" M 101.437 97.461 L 106.458 91.436 L 116.5 65.327 L 126.542 91.436 L 131.563 97.461 L 101.437 97.461 Z " fill="rgb(172,40,71)"/><path d=" M 113.302 111.216 L 113.302 111.216 L 113.302 117.611 L 119.698 117.611 L 119.698 111.216 L 119.698 111.216 C 119.698 109.451 118.265 108.018 116.5 108.018 C 114.735 108.018 113.302 109.451 113.302 111.216 Z " fill-rule="evenodd" fill="rgb(247,243,183)"/><path d=" M 78.437 135 L 78.437 109.857 L 78.509 109.857 L 93.437 80 L 108.365 109.857 L 108.437 109.857 L 108.437 110 L 108.437 135 L 118.437 145 L 118.437 170 L 68.437 170 L 68.437 145 L 78.437 135 Z " fill-rule="evenodd" fill="rgb(172,40,71)"/><path d=" M 89.47 123.151 L 89.47 123.151 L 89.47 131.086 L 97.404 131.086 L 97.404 123.151 L 97.404 123.151 C 97.404 120.961 95.627 119.184 93.437 119.184 C 91.247 119.184 89.47 120.961 89.47 123.151 Z " fill-rule="evenodd" fill="rgb(247,243,183)"/><path d=" M 75.584 110 L 81.535 104.049 L 93.437 78.261 L 105.339 104.049 L 111.29 110 L 75.584 110 Z " fill="rgb(236,39,63)"/></g></g></svg>