<?xml version="1.0" encoding="UTF-8" standalone="no"?><!-- Generator: Gravit.io --><svg xmlns="http://www.w3.org/2000/svg" xmlns:xlink="http://www.w3.org/1999/xlink" style="isolation:isolate" viewBox="0 0 200 200" width="200" height="200"><defs><clipPath id="_clipPath_GKP709Jm7S4KlX265h0QI8oRm63h6dvg"><rect width="200" height="200"/></clipPath></defs><g clip-path="url(#_clipPath_GKP709Jm7S4KlX265h0QI8oRm63h6dvg)"><path d=" M 127.243 170 L 127.243 170 L 150 170 L 150 129.903 L 150 129.903 L 138.622 112.719 L 131.575 123.361 L 131.575 120.701 L 131.575 120.701 L 116.827 103.003 L 102.079 120.701 L 102.079 120.701 L 102.079 123.309 L 91.827 111.007 L 84.249 120.1 L 84.249 120.1 L 84.249 120.1 L 84.249 120.1 L 84.249 120.1 L 84.249 120.1 L 83.577 107.332 L 60.077 107.332 L 57.465 156.944 L 54.854 156.944 L 52.243 170 L 77.079 170 L 77.079 170 L 106.575 170 L 106.575 170 L 127.243 170 L 127.243 170 L 127.243 170 L 127.243 170 Z  M 88.799 102.11 L 83.577 107.332 L 60.077 107.332 L 54.854 102.11 L 54.854 89.054 L 62.688 89.054 L 62.688 96.887 L 67.91 96.887 L 67.91 89.054 C 70.558 88.943 71.434 88.948 75.744 89.054 L 75.744 96.887 L 80.966 96.887 L 80.966 89.054 L 88.799 89.054 L 88.799 102.11 L 88.799 102.11 L 88.799 102.11 L 88.799 102.11 L 88.799 102.11 L 88.799 102.11 L 88.799 102.11 L 88.799 102.11 L 88.799 102.11 Z " fill-rule="evenodd" fill="rgb(107,38,67)" vector-effect="non-scaling-stroke" stroke-width="8" stroke="rgb(44,30,49)" stroke-linejoin="round" stroke-linecap="round" stroke-miterlimit="3"/><g><path d=" M 102.079 120.701 L 102.079 120.701 L 102.079 161.997 L 131.575 161.997 L 131.575 120.701 L 131.575 120.701 L 116.827 103.003 L 102.079 120.701 Z " fill-rule="evenodd" fill="rgb(107,38,67)"/><path d=" M 127.243 129.903 L 127.243 129.903 L 127.243 170 L 150 170 L 150 129.903 L 150 129.903 L 138.622 112.719 L 127.243 129.903 Z " fill-rule="evenodd" fill="rgb(176,167,184)"/><path d=" M 77.079 128.705 L 77.079 128.705 L 77.079 170 L 106.575 170 L 106.575 128.705 L 106.575 128.705 L 91.827 111.007 L 77.079 128.705 Z " fill-rule="evenodd" fill="rgb(172,40,71)"/><rect x="71.827" y="139.823" width="65.416" height="30.177" transform="matrix(1,0,0,1,0,0)" fill="rgb(176,167,184)"/><rect x="71.827" y="145" width="10" height="5" transform="matrix(1,0,0,1,0,0)" fill="rgb(176,167,184)"/><rect x="92.243" y="135" width="10" height="5" transform="matrix(1,0,0,1,0,0)" fill="rgb(176,167,184)"/><rect x="111.827" y="135" width="10" height="5" transform="matrix(1,0,0,1,0,0)" fill="rgb(176,167,184)"/><g><path d=" M 86.188 156.944 L 88.799 156.944 L 91.411 170 L 52.243 170 L 54.854 156.944 L 57.465 156.944 L 60.077 107.332 L 83.577 107.332 L 86.188 156.944 Z  M 88.799 102.11 L 83.577 107.332 L 60.077 107.332 L 54.854 102.11 L 54.854 89.054 L 62.688 89.054 L 62.688 96.887 L 67.91 96.887 L 67.91 89.054 C 70.558 88.943 71.434 88.948 75.744 89.054 L 75.744 96.887 L 80.966 96.887 L 80.966 89.054 L 88.799 89.054 L 88.799 102.11 Z " fill-rule="evenodd" fill="rgb(176,167,184)"/><path d=" M 67.86 124.376 L 67.86 124.376 L 67.86 132.311 L 75.794 132.311 L 75.794 124.376 L 75.794 124.376 C 75.794 122.186 74.016 120.409 71.827 120.409 C 69.637 120.409 67.86 122.186 67.86 124.376 Z " fill-rule="evenodd" fill="rgb(247,243,183)"/></g><path d=" M 134.654 142.853 L 134.654 142.853 L 134.654 150.788 L 142.589 150.788 L 142.589 142.853 L 142.589 142.853 C 142.589 140.663 140.811 138.886 138.622 138.886 C 136.432 138.886 134.654 140.663 134.654 142.853 Z " fill-rule="evenodd" fill="rgb(247,243,183)"/></g></g></svg>