<?xml version="1.0" encoding="UTF-8" standalone="no"?><!-- Generator: Gravit.io --><svg xmlns="http://www.w3.org/2000/svg" xmlns:xlink="http://www.w3.org/1999/xlink" style="isolation:isolate" viewBox="0 0 200 200" width="200" height="200"><defs><clipPath id="_clipPath_xnrRnsdSvuirSudu1J4RVXZ5Z5piiNMm"><rect width="200" height="200"/></clipPath></defs><g clip-path="url(#_clipPath_xnrRnsdSvuirSudu1J4RVXZ5Z5piiNMm)"><path d=" M 144.946 144.865 L 144.946 135.458 L 141.426 135.458 L 141.426 135.458 L 144.946 135.458 L 141.426 131.234 L 141.426 119.865 L 136.426 119.865 L 136.426 114.777 L 131.426 104.777 L 121.426 94.777 L 101.426 94.777 L 91.426 104.777 L 88.906 109.819 L 83.328 104.241 L 71.426 78.454 L 59.525 104.241 L 53.574 110.192 L 88.719 110.192 L 86.426 114.777 L 86.426 119.865 L 83.328 119.865 L 83.328 110.192 L 59.525 110.192 L 59.525 144.865 L 56.426 144.865 L 56.426 154.865 L 56.426 154.865 L 56.426 170 L 146.426 170 L 146.426 154.865 L 146.426 154.865 L 146.426 144.865 L 144.946 144.865 Z " fill-rule="evenodd" fill="rgb(107,38,67)" vector-effect="non-scaling-stroke" stroke-width="8" stroke="rgb(44,30,49)" stroke-linejoin="round" stroke-linecap="round" stroke-miterlimit="3"/><g><path d=" M 86.426 119.865 L 81.426 119.865 L 81.426 169.865 L 141.426 169.865 L 141.426 119.865 L 136.426 119.865 L 136.426 114.777 L 131.426 104.777 L 121.426 94.777 L 101.426 94.777 L 91.426 104.777 L 86.426 114.777 L 86.426 119.865 Z " fill-rule="evenodd" fill="rgb(107,38,67)"/><path d=" M 121.426 135.458 L 121.426 135.458 L 121.426 168.385 L 144.946 168.385 L 144.946 135.458 L 144.946 135.458 L 133.186 121.346 L 121.426 135.458 Z " fill-rule="evenodd" fill="rgb(172,40,71)"/><path d=" M 102.167 142.162 L 102.167 142.162 L 102.167 169.125 L 121.426 169.125 L 121.426 142.162 L 121.426 142.162 L 111.797 130.606 L 102.167 142.162 Z " fill-rule="evenodd" fill="rgb(172,40,71)"/><path d=" M 79.112 135.013 L 79.112 135.013 L 79.112 169.495 L 103.741 169.495 L 103.741 135.013 L 103.741 135.013 L 91.426 120.236 L 79.112 135.013 Z " fill-rule="evenodd" fill="rgb(172,40,71)"/><g><rect x="59.525" y="110.192" width="23.804" height="59.673" transform="matrix(1,0,0,1,0,0)" fill="rgb(172,40,71)"/><path d=" M 53.574 110.192 L 59.525 104.241 L 71.426 78.454 L 83.328 104.241 L 89.279 110.192 L 53.574 110.192 Z " fill="rgb(236,39,63)"/><path d=" M 67.459 124.078 L 67.459 124.078 L 67.459 132.013 L 75.394 132.013 L 75.394 124.078 L 75.394 124.078 C 75.394 121.888 73.616 120.111 71.426 120.111 C 69.237 120.111 67.459 121.888 67.459 124.078 Z " fill-rule="evenodd" fill="rgb(247,243,183)"/></g><rect x="56.426" y="149.865" width="90" height="20.135" transform="matrix(1,0,0,1,0,0)" fill="rgb(176,167,184)"/><rect x="56.426" y="144.865" width="10" height="10" transform="matrix(1,0,0,1,0,0)" fill="rgb(176,167,184)"/><rect x="76.426" y="144.865" width="10" height="10" transform="matrix(1,0,0,1,0,0)" fill="rgb(176,167,184)"/><rect x="96.426" y="144.865" width="10" height="10" transform="matrix(1,0,0,1,0,0)" fill="rgb(176,167,184)"/><rect x="136.426" y="144.865" width="10" height="10" transform="matrix(1,0,0,1,0,0)" fill="rgb(176,167,184)"/><rect x="116.426" y="144.865" width="10" height="10" transform="matrix(1,0,0,1,0,0)" fill="rgb(176,167,184)"/></g></g></svg>