<?xml version="1.0" encoding="UTF-8" standalone="no"?><!-- Generator: Gravit.io --><svg xmlns="http://www.w3.org/2000/svg" xmlns:xlink="http://www.w3.org/1999/xlink" style="isolation:isolate" viewBox="0 0 200 200" width="200" height="200"><defs><clipPath id="_clipPath_xBydYPeWRGjyOMdHWgzoKm00eq8Yxf4s"><rect width="200" height="200"/></clipPath></defs><g clip-path="url(#_clipPath_xBydYPeWRGjyOMdHWgzoKm00eq8Yxf4s)"><path d=" M 115.177 93.769 L 116.564 95.434 L 116.564 93.769 L 115.177 93.769 Z  M 113.25 91.458 L 103.702 80 L 93.591 92.133 L 93.591 88.989 L 85.758 88.989 L 85.758 96.822 L 80.535 96.822 L 80.535 88.989 C 76.225 88.883 75.35 88.877 72.702 88.989 L 72.702 96.822 L 67.48 96.822 L 67.48 88.989 L 59.646 88.989 L 59.646 102.044 L 64.868 107.267 L 84.993 107.267 L 84.993 107.267 L 84.993 107.267 L 84.993 107.267 L 84.993 107.267 L 84.993 107.267 L 64.868 107.267 L 62.257 156.879 L 62.257 156.879 L 59.646 156.879 L 57.035 169.935 L 63.702 169.935 L 63.702 170 L 128.702 170 L 128.702 170 L 141.959 170 L 137.726 140.355 L 137.726 93.769 L 142.965 93.769 L 137.692 87.438 L 127.145 60 L 116.598 87.438 L 113.25 91.458 Z " fill-rule="evenodd" fill="rgb(44,30,49)" vector-effect="non-scaling-stroke" stroke-width="8" stroke="rgb(44,30,49)" stroke-linejoin="round" stroke-linecap="round" stroke-miterlimit="3"/><g><path d=" M 84.993 102.451 L 84.993 102.451 L 84.993 154.837 L 122.412 154.837 L 122.412 102.451 L 122.412 102.451 L 103.702 80 L 84.993 102.451 Z " fill-rule="evenodd" fill="rgb(44,30,49)"/><path d=" M 78.702 110 L 123.702 120 L 123.702 165 L 78.702 165 L 78.702 110 Z " fill="rgb(107,38,67)"/><path d=" M 63.702 141.26 L 128.702 141.26 L 128.702 170 L 63.702 170 L 63.702 141.26 Z  M 93.702 141.26 L 123.702 124.837 L 123.702 141.26 L 93.702 141.26 Z " fill-rule="evenodd" fill="rgb(172,40,71)"/><g><path d=" M 112.331 170 L 116.564 140.355 L 137.726 140.355 L 141.959 170 L 112.331 170 Z " fill="rgb(172,40,71)"/><rect x="116.564" y="93.769" width="21.163" height="56.231" transform="matrix(1,0,0,1,0,0)" fill="rgb(172,40,71)"/><path d=" M 111.325 93.769 L 116.598 87.438 L 127.145 60 L 137.692 87.438 L 142.965 93.769 L 111.325 93.769 Z " fill="rgb(236,39,63)"/><path d=" M 123.787 108.224 L 123.787 108.224 L 123.787 114.945 L 130.503 114.945 L 130.503 108.224 L 130.503 108.224 C 130.503 106.369 128.999 104.864 127.145 104.864 C 125.292 104.864 123.787 106.369 123.787 108.224 Z " fill-rule="evenodd" fill="rgb(247,243,183)"/></g><g><path d=" M 90.98 156.879 L 93.591 156.879 L 96.202 169.935 L 57.035 169.935 L 59.646 156.879 L 62.257 156.879 L 64.868 107.267 L 88.369 107.267 L 90.98 156.879 Z  M 93.591 102.044 L 88.369 107.267 L 64.868 107.267 L 59.646 102.044 L 59.646 88.989 L 67.48 88.989 L 67.48 96.822 L 72.702 96.822 L 72.702 88.989 C 75.35 88.877 76.225 88.883 80.535 88.989 L 80.535 96.822 L 85.758 96.822 L 85.758 88.989 L 93.591 88.989 L 93.591 102.044 Z " fill-rule="evenodd" fill="rgb(176,167,184)"/><path d=" M 72.651 124.311 L 72.651 124.311 L 72.651 132.245 L 80.586 132.245 L 80.586 124.311 L 80.586 124.311 C 80.586 122.121 78.808 120.343 76.619 120.343 C 74.429 120.343 72.651 122.121 72.651 124.311 Z " fill-rule="evenodd" fill="rgb(247,243,183)"/></g></g></g></svg>