<?xml version="1.0" encoding="UTF-8" standalone="no"?><!-- Generator: Gravit.io --><svg xmlns="http://www.w3.org/2000/svg" xmlns:xlink="http://www.w3.org/1999/xlink" style="isolation:isolate" viewBox="0 0 200 200" width="200" height="200"><defs><clipPath id="_clipPath_ApyJL44ErnO3QDICJC9ODBMtEJa70HNM"><rect width="200" height="200"/></clipPath></defs><g clip-path="url(#_clipPath_ApyJL44ErnO3QDICJC9ODBMtEJa70HNM)"><g><path d=" M 127.018 86.686 L 127.018 100.719 L 137.937 124.376 L 143.888 130.327 L 137.937 130.327 L 137.937 170 L 114.133 170 L 114.133 170 L 95.28 170 L 95.28 170 L 56.112 170 L 58.723 156.944 L 61.335 156.944 L 63.946 107.332 L 63.946 107.332 L 58.723 102.11 L 58.723 89.054 L 66.557 89.054 L 66.557 96.887 L 71.779 96.887 L 71.779 89.054 C 74.427 88.943 75.303 88.948 79.613 89.054 L 79.613 96.887 L 84.835 96.887 L 84.835 89.054 L 92.669 89.054 L 92.669 102.11 L 87.446 107.332 L 87.446 107.332 L 87.557 109.442 L 103.214 90.654 L 108.182 96.615 L 108.182 86.686 L 102.723 86.686 L 107.682 80.735 L 117.6 54.948 L 127.518 80.735 L 132.478 86.686 L 127.018 86.686 Z " fill-rule="evenodd" fill="rgb(44,30,49)" vector-effect="non-scaling-stroke" stroke-width="8" stroke="rgb(44,30,49)" stroke-linejoin="round" stroke-linecap="round" stroke-miterlimit="3"/><g><rect x="108.182" y="86.686" width="18.836" height="55.542" transform="matrix(1,0,0,1,0,0)" fill="rgb(44,30,49)"/><path d=" M 83.378 114.458 L 83.378 114.458 L 83.378 170 L 123.051 170 L 123.051 114.458 L 123.051 114.458 L 103.214 90.654 L 83.378 114.458 Z " fill-rule="evenodd" fill="rgb(107,38,67)"/><rect x="114.133" y="130.327" width="23.804" height="39.673" transform="matrix(1,0,0,1,0,0)" fill="rgb(172,40,71)"/><path d=" M 108.182 130.327 L 114.133 124.376 L 126.035 98.588 L 137.937 124.376 L 143.888 130.327 L 108.182 130.327 Z " fill="rgb(236,39,63)"/><path d=" M 102.723 86.686 L 107.682 80.735 L 117.6 54.948 L 127.518 80.735 L 132.478 86.686 L 102.723 86.686 Z " fill="rgb(172,40,71)"/><path d=" M 90.057 156.944 L 92.669 156.944 L 95.28 170 L 56.112 170 L 58.723 156.944 L 61.335 156.944 L 63.946 107.332 L 87.446 107.332 L 90.057 156.944 Z  M 92.669 102.11 L 87.446 107.332 L 63.946 107.332 L 58.723 102.11 L 58.723 89.054 L 66.557 89.054 L 66.557 96.887 L 71.779 96.887 L 71.779 89.054 C 74.427 88.943 75.303 88.948 79.613 89.054 L 79.613 96.887 L 84.835 96.887 L 84.835 89.054 L 92.669 89.054 L 92.669 102.11 Z " fill-rule="evenodd" fill="rgb(176,167,184)"/><path d=" M 122.068 144.212 L 122.068 144.212 L 122.068 152.147 L 130.002 152.147 L 130.002 144.212 L 130.002 144.212 L 130.002 144.212 C 130.002 142.023 128.224 140.245 126.035 140.245 C 123.845 140.245 122.068 142.023 122.068 144.212 Z " fill-rule="evenodd" fill="rgb(247,243,183)"/><path d=" M 71.729 124.376 L 71.729 124.376 L 71.729 132.311 L 79.663 132.311 L 79.663 124.376 L 79.663 124.376 C 79.663 122.186 77.886 120.409 75.696 120.409 C 73.506 120.409 71.729 122.186 71.729 124.376 Z " fill-rule="evenodd" fill="rgb(247,243,183)"/></g></g></g></svg>