<?xml version="1.0" encoding="UTF-8" standalone="no"?><!-- Generator: Gravit.io --><svg xmlns="http://www.w3.org/2000/svg" xmlns:xlink="http://www.w3.org/1999/xlink" style="isolation:isolate" viewBox="0 0 200 200" width="200" height="200"><defs><clipPath id="_clipPath_uEMb2Ghk36UGejQaP3wa9rYdfaKLRiEj"><rect width="200" height="200"/></clipPath></defs><g clip-path="url(#_clipPath_uEMb2Ghk36UGejQaP3wa9rYdfaKLRiEj)"><path d=" M 70 121.35 L 66.291 138.581 L 66.291 111.651 L 61.439 111.651 L 61.439 104.528 C 61.439 102.562 63.034 100.967 65 100.967 C 65.455 100.967 65.891 101.052 66.291 101.208 L 66.291 92.451 L 96.291 92.451 L 96.291 92.451 L 76.221 92.451 L 76.221 92.451 L 76.221 92.451 L 76.221 92.451 L 76.221 92.451 L 76.221 92.451 L 70.291 120 L 70 120 L 70 121.35 L 70 121.35 Z  M 70 170 L 49.291 170 L 53.779 138.581 L 53.779 138.581 L 53.779 89.209 L 53.779 89.209 L 48.223 89.209 L 53.816 82.498 L 65 53.419 L 75.679 81.185 L 75.679 81.185 L 75.679 81.185 L 85 70 L 96.291 83.549 L 96.291 82.778 L 96.291 82.778 L 115 60.327 L 126.866 74.566 L 126.866 74.566 L 135 53.419 L 146.184 82.498 L 151.777 89.209 L 146.221 89.209 L 146.221 89.209 L 146.221 138.581 L 146.221 138.581 L 150.709 170 L 130 170 L 119.291 170 L 119.291 170 L 110 170 L 90 170 L 80.709 170 L 70 170 L 70 170 Z " fill-rule="evenodd" fill="rgb(44,30,49)" vector-effect="non-scaling-stroke" stroke-width="8" stroke="rgb(44,30,49)" stroke-linejoin="round" stroke-linecap="round" stroke-miterlimit="3"/><g><path d=" M 96.291 82.778 L 96.291 82.778 L 96.291 135.163 L 133.709 135.163 L 133.709 82.778 L 133.709 82.778 L 115 60.327 L 96.291 82.778 Z " fill-rule="evenodd" fill="rgb(44,30,49)"/><path d=" M 66.291 92.451 L 66.291 92.451 L 66.291 144.837 L 103.709 144.837 L 103.709 92.451 L 103.709 92.451 L 85 70 L 66.291 92.451 Z " fill-rule="evenodd" fill="rgb(107,38,67)"/><g><path d=" M 49.291 170 L 53.779 138.581 L 76.221 138.581 L 80.709 170 L 49.291 170 Z " fill="rgb(172,40,71)"/><rect x="53.779" y="85" width="22.442" height="69.291" transform="matrix(1,0,0,1,0,0)" fill="rgb(172,40,71)"/><path d=" M 48.223 89.209 L 53.816 82.498 L 65 53.419 L 76.184 82.498 L 81.777 89.209 L 48.223 89.209 Z " fill="rgb(236,39,63)"/><path d=" M 61.439 104.528 L 61.439 104.528 L 61.439 111.651 L 68.561 111.651 L 68.561 104.528 L 68.561 104.528 C 68.561 102.562 66.966 100.967 65 100.967 C 63.034 100.967 61.439 102.562 61.439 104.528 Z " fill-rule="evenodd" fill="rgb(247,243,183)"/></g><g><path d=" M 119.291 170 L 123.779 138.581 L 146.221 138.581 L 150.709 170 L 119.291 170 Z " fill="rgb(172,40,71)"/><rect x="123.779" y="86" width="22.442" height="64" transform="matrix(1,0,0,1,0,0)" fill="rgb(172,40,71)"/><path d=" M 118.223 89.209 L 123.816 82.498 L 135 53.419 L 146.184 82.498 L 151.777 89.209 L 118.223 89.209 Z " fill="rgb(236,39,63)"/><path d=" M 131.439 104.528 L 131.439 104.528 L 131.439 111.651 L 138.561 111.651 L 138.561 104.528 L 138.561 104.528 C 138.561 102.562 136.966 100.967 135 100.967 C 133.034 100.967 131.439 102.562 131.439 104.528 Z " fill-rule="evenodd" fill="rgb(247,243,183)"/></g><rect x="70" y="120" width="60" height="50" transform="matrix(1,0,0,1,0,0)" fill="rgb(172,40,71)"/><path d=" M 75 120 L 75 114.911 L 80 104.911 L 90 94.911 L 110 94.911 L 120 104.911 L 125 114.911 L 125 120 L 75 120 Z " fill="rgb(172,40,71)"/><path d=" M 90 150 L 90 150 L 90 170 L 110 170 L 110 150 L 110 150 C 110 144.481 105.519 140 100 140 C 94.481 140 90 144.481 90 150 Z " fill-rule="evenodd" fill="rgb(107,38,67)"/></g></g></svg>