<?xml version="1.0" encoding="UTF-8" standalone="no"?><!-- Generator: Gravit.io --><svg xmlns="http://www.w3.org/2000/svg" xmlns:xlink="http://www.w3.org/1999/xlink" style="isolation:isolate" viewBox="0 0 200 200" width="200" height="200"><defs><clipPath id="_clipPath_i2h3w9ihP9Ct1B5llyqDAXAjBUJ1pogo"><rect width="200" height="200"/></clipPath></defs><g clip-path="url(#_clipPath_i2h3w9ihP9Ct1B5llyqDAXAjBUJ1pogo)"><path d=" M 78.094 98.451 L 89.303 85 L 101.616 99.775 L 101.616 99.775 L 101.616 99.775 L 118.094 80 L 132.261 97 L 139.594 97 L 139.594 105 L 138.928 105 L 138.928 105 L 138.928 105 L 138.928 105 L 138.928 105 L 138.928 105 L 153.094 105 L 153.094 170 L 133.094 170 L 118.094 170 L 83.094 170 L 83.094 170 L 65.594 170 L 48.094 170 L 53.094 135 L 53.094 135 L 65.594 135 L 53.094 135 L 53.094 80 L 78.094 80 L 78.094 98.451 L 78.094 98.451 Z  M 145.094 97 L 153.094 97 L 153.094 105 L 145.094 105 L 145.094 97 L 145.094 97 L 145.094 97 L 145.094 97 L 145.094 97 Z  M 46.906 80 L 53.135 72.525 L 65.594 40.131 L 78.053 72.525 L 84.283 80 L 46.906 80 Z " fill-rule="evenodd" fill="rgb(44,30,49)" vector-effect="non-scaling-stroke" stroke-width="8" stroke="rgb(44,30,49)" stroke-linejoin="round" stroke-linecap="round" stroke-miterlimit="3"/><g><path d=" M 68.094 110.451 L 68.094 110.451 L 68.094 169.837 L 110.513 169.837 L 110.513 110.451 L 110.513 110.451 L 89.303 85 L 68.094 110.451 Z " fill-rule="evenodd" fill="rgb(44,30,49)"/><path d=" M 95.676 106.902 L 95.676 106.902 L 95.676 169.673 L 140.513 169.673 L 140.513 106.902 L 140.513 106.902 L 118.094 80 L 95.676 106.902 Z " fill-rule="evenodd" fill="rgb(107,38,67)"/><rect x="65.594" y="115" width="67.5" height="55" transform="matrix(1,0,0,1,0,0)" fill="rgb(176,167,184)"/><rect x="118.094" y="105" width="35" height="65" transform="matrix(1,0,0,1,0,0)" fill="rgb(176,167,184)"/><rect x="118.094" y="97" width="8" height="13" transform="matrix(1,0,0,1,0,0)" fill="rgb(176,167,184)"/><rect x="145.094" y="97" width="8" height="13" transform="matrix(1,0,0,1,0,0)" fill="rgb(176,167,184)"/><rect x="131.594" y="97" width="8" height="13" transform="matrix(1,0,0,1,0,0)" fill="rgb(176,167,184)"/><path d=" M 131.594 121.686 L 131.594 121.686 L 131.594 129.621 L 139.529 129.621 L 139.529 121.686 L 139.529 121.686 C 139.529 119.497 137.751 117.719 135.562 117.719 C 133.372 117.719 131.594 119.497 131.594 121.686 Z " fill-rule="evenodd" fill="rgb(247,243,183)"/><g><path d=" M 48.094 170 L 53.094 135 L 78.094 135 L 83.094 170 L 48.094 170 Z " fill="rgb(172,40,71)"/><rect x="53.094" y="80" width="25" height="60" transform="matrix(1,0,0,1,0,0)" fill="rgb(172,40,71)"/><path d=" M 46.906 80 L 53.135 72.525 L 65.594 40.131 L 78.053 72.525 L 84.283 80 L 46.906 80 Z " fill="rgb(236,39,63)"/><path d=" M 61.627 97.065 L 61.627 97.065 L 61.627 105 L 69.562 105 L 69.562 97.065 L 69.562 97.065 C 69.562 94.876 67.784 93.098 65.594 93.098 C 63.405 93.098 61.627 94.876 61.627 97.065 Z " fill-rule="evenodd" fill="rgb(247,243,183)"/></g></g></g></svg>