<?xml version="1.0" encoding="UTF-8" standalone="no"?><!-- Generator: Gravit.io --><svg xmlns="http://www.w3.org/2000/svg" xmlns:xlink="http://www.w3.org/1999/xlink" style="isolation:isolate" viewBox="0 0 200 200" width="200" height="200"><defs><clipPath id="_clipPath_JtGno3efCjcc390otA5cu84JYUvCgzwY"><rect width="200" height="200"/></clipPath></defs><g clip-path="url(#_clipPath_JtGno3efCjcc390otA5cu84JYUvCgzwY)"><path d=" M 111.404 55.393 L 116.195 50.79 L 128.585 25.003 L 140.974 50.79 L 147.169 56.741 L 140.35 56.741 L 140.35 88.975 L 140.35 88.975 L 140.35 88.975 C 141.331 88.983 142.532 89.01 144.333 89.054 L 144.333 96.887 L 149.555 96.887 L 149.555 89.054 L 157.389 89.054 L 157.389 102.11 L 152.167 107.332 L 152.167 107.332 L 154.778 156.944 L 154.778 156.944 L 157.389 156.944 L 160 170 L 160 170 L 120.833 170 L 120.859 169.865 L 110 169.865 L 110 170 L 90 170 L 90 169.865 L 65 169.865 L 65 169.865 L 40 169.865 L 42.611 156.81 L 45.222 156.81 L 47.833 107.197 L 47.833 107.197 L 47.833 107.197 L 47.833 107.197 L 47.833 107.197 L 47.833 107.197 L 47.833 107.197 L 47.833 107.197 L 47.833 107.197 L 47.833 107.197 L 47.833 107.197 L 42.611 101.975 L 42.611 88.919 L 50.445 88.919 L 50.445 96.753 L 55.667 96.753 L 55.667 88.919 C 57.258 88.853 58.209 88.828 59.65 88.842 L 59.65 56.741 L 59.65 56.741 L 59.65 56.741 L 59.65 56.741 L 52.831 56.741 L 59.026 50.79 L 71.415 25.003 L 83.805 50.79 L 88.596 55.393 L 100 34.865 L 111.404 55.393 Z  M 112.153 56.741 L 116.82 56.741 L 116.82 56.741 L 116.82 65.141 L 112.153 56.741 Z  M 83.18 65.141 L 83.18 56.741 L 87.847 56.741 L 83.18 65.141 Z " fill-rule="evenodd" fill="rgb(176,167,184)" vector-effect="non-scaling-stroke" stroke-width="8" stroke="rgb(44,30,49)" stroke-linejoin="round" stroke-linecap="round" stroke-miterlimit="3"/><g><rect x="59.65" y="50" width="23.53" height="62.284" transform="matrix(1,0,0,1,0,0)" fill="rgb(44,30,49)"/><path d=" M 52.831 56.741 L 59.026 50.79 L 71.415 25.003 L 83.805 50.79 L 90 56.741 L 52.831 56.741 Z " fill="rgb(172,40,71)"/><rect x="116.82" y="50" width="23.53" height="62.284" transform="matrix(1,0,0,1,0,0)" fill="rgb(44,30,49)"/><path d=" M 110 56.741 L 116.195 50.79 L 128.585 25.003 L 140.974 50.79 L 147.169 56.741 L 110 56.741 Z " fill="rgb(172,40,71)"/><rect x="70" y="94.865" width="60" height="49.823" transform="matrix(1,0,0,1,0,0)" fill="rgb(107,38,67)"/><rect x="80" y="73" width="40" height="51.865" transform="matrix(1,0,0,1,0,0)" fill="rgb(107,38,67)"/><rect x="65" y="114.865" width="65" height="55" transform="matrix(1,0,0,1,0,0)" fill="rgb(176,167,184)"/><g><path d=" M 73.945 156.81 L 76.556 156.81 L 79.167 169.865 L 40 169.865 L 42.611 156.81 L 45.222 156.81 L 47.833 107.197 L 71.334 107.197 L 73.945 156.81 Z  M 76.556 101.975 L 71.334 107.197 L 47.833 107.197 L 42.611 101.975 L 42.611 88.919 L 50.445 88.919 L 50.445 96.753 L 55.667 96.753 L 55.667 88.919 C 58.315 88.808 59.19 88.814 63.5 88.919 L 63.5 96.753 L 68.723 96.753 L 68.723 88.919 L 76.556 88.919 L 76.556 101.975 Z " fill-rule="evenodd" fill="rgb(176,167,184)"/><path d=" M 55.616 124.241 L 55.616 124.241 L 55.616 132.176 L 63.551 132.176 L 63.551 124.241 L 63.551 124.241 C 63.551 122.052 61.773 120.274 59.584 120.274 C 57.394 120.274 55.616 122.052 55.616 124.241 Z " fill-rule="evenodd" fill="rgb(247,243,183)"/></g><g><path d=" M 154.778 156.944 L 157.389 156.944 L 160 170 L 120.833 170 L 123.444 156.944 L 126.055 156.944 L 128.666 107.332 L 152.167 107.332 L 154.778 156.944 Z  M 157.389 102.11 L 152.167 107.332 L 128.666 107.332 L 123.444 102.11 L 123.444 89.054 L 131.277 89.054 L 131.277 96.887 L 136.5 96.887 L 136.5 89.054 C 139.147 88.943 140.023 88.948 144.333 89.054 L 144.333 96.887 L 149.555 96.887 L 149.555 89.054 L 157.389 89.054 L 157.389 102.11 Z " fill-rule="evenodd" fill="rgb(176,167,184)"/><path d=" M 136.449 124.376 L 136.449 124.376 L 136.449 132.311 L 144.384 132.311 L 144.384 124.376 L 144.384 124.376 C 144.384 122.186 142.606 120.409 140.416 120.409 C 138.227 120.409 136.449 122.186 136.449 124.376 Z " fill-rule="evenodd" fill="rgb(247,243,183)"/></g><path d=" M 81.818 67.593 L 74.545 74.865 L 125.455 74.865 L 118.182 67.593 L 100 34.865 L 81.818 67.593 Z " fill="rgb(172,40,71)"/><path d=" M 90 150 L 90 150 L 90 170 L 110 170 L 110 150 L 110 150 C 110 144.481 105.519 140 100 140 C 94.481 140 90 144.481 90 150 Z " fill-rule="evenodd" fill="rgb(107,38,67)"/><path d=" M 96.033 91.931 L 96.033 91.931 L 96.033 99.865 L 103.967 99.865 L 103.967 91.931 L 103.967 91.931 C 103.967 89.741 102.19 87.964 100 87.964 C 97.81 87.964 96.033 89.741 96.033 91.931 Z " fill-rule="evenodd" fill="rgb(247,243,183)"/></g></g></svg>