<?xml version="1.0" encoding="UTF-8" standalone="no"?><!-- Generator: Gravit.io --><svg xmlns="http://www.w3.org/2000/svg" xmlns:xlink="http://www.w3.org/1999/xlink" style="isolation:isolate" viewBox="1319.085 2414.085 234.085 202.723" width="234.085" height="202.723"><g><polygon points="1494.648,2616.808,1377.606,2616.808,1319.085,2515.447,1377.606,2414.085,1494.648,2414.085,1553.169,2515.447" fill="none"/><path d=" M 1465.431 2478.605 L 1479.118 2464.821 L 1456.307 2456.551 L 1431.215 2459.308 L 1422.091 2473.092 L 1428.934 2478.605 L 1465.431 2478.605 Z " fill="rgb(94,91,140)"/><path d=" M 1467.098 2566.127 L 1448.752 2529.417 L 1430.323 2555.015 L 1389.39 2520.779 L 1377.083 2566.127 L 1394.699 2544.533 L 1430.323 2566.127 L 1448.752 2551.373 L 1467.098 2566.127 Z " fill="rgb(94,91,140)"/><path d=" M 1383.303 2499.345 L 1370.039 2484.208 L 1365.425 2458.401 L 1379.266 2438.273 L 1398.298 2442.83 L 1412.715 2469.358 L 1415.599 2499.345 L 1383.303 2499.345 Z " fill="rgb(94,91,140)"/></g></svg>