<?xml version="1.0" encoding="UTF-8" standalone="no"?><!-- Generator: Gravit.io --><svg xmlns="http://www.w3.org/2000/svg" xmlns:xlink="http://www.w3.org/1999/xlink" style="isolation:isolate" viewBox="1740 155 200 80" width="200" height="80"><g><rect x="1740" y="155" width="200" height="80" transform="matrix(1,0,0,1,0,0)" fill="none"/><path d=" M 1794.312 208.753 C 1784.49 208.753 1779.64 197.071 1780.974 190.308 C 1783.641 176.782 1797.869 179.857 1816.543 184.16 C 1835.216 188.464 1836.55 188.342 1856.558 186.497 C 1876.565 184.653 1880.863 178.422 1892.127 184.16 C 1905.12 190.78 1899.24 211.827 1883.234 214.901 C 1867.228 217.975 1865.45 208.138 1852.112 208.753 C 1838.773 209.367 1838.11 211.247 1825.772 212.497 C 1813.434 213.747 1804.686 208.753 1794.312 208.753 Z " fill="rgb(218,177,99)"/></g></svg>