<?xml version="1.0" encoding="UTF-8" standalone="no"?><!-- Generator: Gravit.io --><svg xmlns="http://www.w3.org/2000/svg" xmlns:xlink="http://www.w3.org/1999/xlink" style="isolation:isolate" viewBox="2606.69 610 730.62 889.757" width="730.62" height="889.757"><g><g><path d=" M 3169.069 1014.5 Q 3138.184 1008.947 3109.719 1005.232 L 3109.719 1005.232 L 3118 1000 L 3112.824 995.023 L 3112.824 995.023 L 3112.824 995.023 L 3112.824 995.023 C 3171.897 984.843 3216.897 933.31 3216.897 871.349 L 3216.897 871.349 C 3216.897 853.595 3213.202 836.697 3206.54 821.383 L 3206.69 821.375 L 3206.37 820.994 C 3205.025 817.93 3203.561 814.93 3201.984 812 L 3201.984 812 L 3254.274 812 L 3254.274 812 L 3254.274 812 L 2947.69 650 L 2926.574 674.434 L 2889.81 659 L 2807.69 812 L 2807.69 812 L 2819.77 812 L 2812.018 828.043 L 2812.018 828.043 L 2808.993 827.829 L 2770 982 L 2770 982 L 2686 1119.182 L 2772.947 1119.182 C 2756.906 1148.828 2740.721 1166.867 2673.69 1149.839 C 2647.19 1351.589 2672.69 1150.589 2646.69 1350.839 C 2727.629 1355.876 2808.273 1334.52 2863.446 1304.049 C 2870.034 1311.097 2879.412 1315.5 2889.81 1315.5 L 3137.57 1315.5 C 3157.505 1315.5 3173.69 1299.315 3173.69 1279.38 L 3173.69 1216.839 L 3173.69 1216.839 L 3173.69 1015.339 L 3173.69 1015.339 L 3173.69 1014.5 L 3169.069 1014.5 L 3169.069 1014.5 Z  M 3171.668 1360.605 L 3166.253 1340.759 C 3162.012 1325.214 3145.948 1316.038 3130.403 1320.279 L 3118.865 1323.427 L 3118.865 1323.427 C 3103.321 1327.669 3094.144 1343.733 3098.385 1359.277 L 3114.572 1418.599 C 3117.952 1430.986 3128.838 1439.329 3140.988 1440.047 C 3144.328 1440.329 3147.773 1440.045 3151.192 1439.112 L 3210.514 1422.926 C 3226.059 1418.684 3235.236 1402.62 3230.994 1387.075 L 3227.846 1375.538 C 3223.605 1359.993 3207.541 1350.816 3191.996 1355.058 L 3171.668 1360.605 L 3171.668 1360.605 L 3171.668 1360.605 L 3171.668 1360.605 L 3171.668 1360.605 L 3171.668 1360.605 L 3171.668 1360.605 L 3171.668 1360.605 L 3171.668 1360.605 L 3171.668 1360.605 L 3171.668 1360.605 Z  M 2913.616 1384.363 L 2922.234 1365.685 C 2928.986 1351.054 2922.588 1333.695 2907.958 1326.944 L 2897.099 1321.933 C 2882.468 1315.182 2865.109 1321.579 2858.358 1336.21 L 2832.595 1392.043 C 2827.215 1403.701 2830.184 1417.091 2839.025 1425.457 C 2841.402 1427.821 2844.222 1429.819 2847.44 1431.304 L 2903.273 1457.068 C 2917.903 1463.819 2935.263 1457.422 2942.014 1442.791 L 2947.024 1431.932 C 2953.776 1417.302 2947.378 1399.943 2932.748 1393.192 L 2913.616 1384.363 L 2913.616 1384.363 L 2913.616 1384.363 L 2913.616 1384.363 L 2913.616 1384.363 L 2913.616 1384.363 L 2913.616 1384.363 L 2913.616 1384.363 L 2913.616 1384.363 L 2913.616 1384.363 L 2913.616 1384.363 L 2913.616 1384.363 Z  M 3215.483 1191.262 C 3215.483 1168.682 3233.816 1150.349 3256.397 1150.349 C 3278.977 1150.349 3297.31 1168.682 3297.31 1191.262 C 3297.31 1213.843 3278.977 1232.176 3256.397 1232.176 C 3233.816 1232.176 3215.483 1213.843 3215.483 1191.262 L 3215.483 1191.262 L 3215.483 1191.262 L 3215.483 1191.262 L 3215.483 1191.262 L 3215.483 1191.262 Z " fill-rule="evenodd" fill="rgb(77,53,51)" vector-effect="non-scaling-stroke" stroke-width="80" stroke="rgb(44,30,49)" stroke-linejoin="round" stroke-linecap="round" stroke-miterlimit="3"/><g><path d=" M 2770 982 L 2808.993 827.829 L 2949.245 837.735 L 3118 1000 L 2929.367 1119.182 L 2686 1119.182 L 2770 982 Z " fill="rgb(233,133,55)"/><g><path d=" M 3173.69 1015.339 Q 2941.634 972.839 2844.662 1032.839 C 2747.69 1092.839 2797.69 1181.339 2673.69 1149.839 C 2647.19 1351.589 2672.69 1150.589 2646.69 1350.839 C 2767.19 1358.339 2887.033 1307.339 2923.111 1254.839 Q 2959.19 1202.339 3173.69 1216.839 L 3173.69 1015.339 Z " fill="rgb(154,77,118)"/><g><path d="M 2935.4 745.85 L 3091.4 745.85 C 3160.665 745.85 3216.9 802.085 3216.9 871.35 L 3216.9 871.35 C 3216.9 940.615 3160.665 996.85 3091.4 996.85 L 2935.4 996.85 C 2866.135 996.85 2809.9 940.615 2809.9 871.35 L 2809.9 871.35 C 2809.9 802.085 2866.135 745.85 2935.4 745.85 Z" style="stroke:none;fill:#F6E8E0;stroke-miterlimit:10;"/><clipPath id="_clipPath_0NWWuZJvSYWztr28Q0Ntxw61Cqyg2jvF"><path d="M 2935.4 745.85 L 3091.4 745.85 C 3160.665 745.85 3216.9 802.085 3216.9 871.35 L 3216.9 871.35 C 3216.9 940.615 3160.665 996.85 3091.4 996.85 L 2935.4 996.85 C 2866.135 996.85 2809.9 940.615 2809.9 871.35 L 2809.9 871.35 C 2809.9 802.085 2866.135 745.85 2935.4 745.85 Z" style="stroke:none;fill:#F6E8E0;stroke-miterlimit:10;"/></clipPath><g clip-path="url(#_clipPath_0NWWuZJvSYWztr28Q0Ntxw61Cqyg2jvF)"><rect x="2808.339" y="796.819" width="413.913" height="71.338" transform="matrix(0.999,-0.039,0.039,0.999,-30.294,118.748)" fill="rgb(255,209,213)"/></g><circle vector-effect="non-scaling-stroke" cx="2778.5261892964295" cy="1188.8056309345404" r="38.45680305816313" fill="rgb(246,232,224)"/><circle vector-effect="non-scaling-stroke" cx="3256.3965984709184" cy="1191.2624339927033" r="40.913606116326264" fill="rgb(246,232,224)"/></g><path d=" M 2879.69 986 L 2913.69 837 L 3206.69 821.375 L 3173.69 782 L 2879.69 688 L 2807.69 837 L 2807.69 916 L 2843.69 968 L 2879.69 986 Z " fill="rgb(243,168,51)"/><path d=" M 2807.69 812 L 2947.69 650 L 3254.274 812 L 2807.69 812 Z " fill="rgb(154,77,118)"/><path d=" M 2807.69 812 L 3254.274 812 L 2889.81 659 L 2807.69 812 Z " fill="rgb(200,120,175)"/><path d=" M 3137.57 1014.5 L 3137.57 1014.5 L 2889.81 1014.5 L 2889.81 1014.5 L 2853.69 1014.5 L 2853.69 1050.62 L 2853.69 1075 L 2853.69 1279.38 C 2853.69 1299.315 2869.875 1315.5 2889.81 1315.5 L 3137.57 1315.5 C 3157.505 1315.5 3173.69 1299.315 3173.69 1279.38 L 3173.69 1075 L 3173.69 1050.62 L 3173.69 1050.62 L 3173.69 1014.5 L 3137.57 1014.5 Z " fill="rgb(200,120,175)"/><clipPath id="_clipPath_IqQiDB3qHbTPLHeu32IX68uGYL885xsY"><path d=" M 3137.57 1014.5 L 3137.57 1014.5 L 2889.81 1014.5 L 2889.81 1014.5 L 2853.69 1014.5 L 2853.69 1050.62 L 2853.69 1075 L 2853.69 1279.38 C 2853.69 1299.315 2869.875 1315.5 2889.81 1315.5 L 3137.57 1315.5 C 3157.505 1315.5 3173.69 1299.315 3173.69 1279.38 L 3173.69 1075 L 3173.69 1050.62 L 3173.69 1050.62 L 3173.69 1014.5 L 3137.57 1014.5 Z " fill="rgb(200,120,175)"/></clipPath><g clip-path="url(#_clipPath_IqQiDB3qHbTPLHeu32IX68uGYL885xsY)"><mask id="_mask_9cfhBHWr9aLmv2LRbRntasqCZv71vlFi" x="-200" y="-200" width="400" height="400"><rect x="-200" y="-200" width="400" height="400" style="fill:white;"/><path d=" M 2838.69 961 L 3048.69 1095 L 3125.69 1014.5 L 2838.69 961 Z " fill="black" stroke="none"/></mask><path d=" M 2838.69 961 L 3048.69 1095 L 3125.69 1014.5 L 2838.69 961 Z " fill="rgb(222,206,237)"/><path d=" M 2838.69 961 L 3048.69 1095 L 3125.69 1014.5 L 2838.69 961 Z " fill="rgb(222,206,237)" mask="url(#_mask_9cfhBHWr9aLmv2LRbRntasqCZv71vlFi)" vector-effect="non-scaling-stroke" stroke-width="30" stroke="rgb(154,77,118)" stroke-linejoin="miter" stroke-linecap="square" stroke-miterlimit="3"/><path d=" M 3125.69 1014.5 L 3048.69 1095 L 2838.69 961 L 3125.69 1014.5 Z  M 3155.69 1004.83 L 3051.01 1114.27 L 2765.51 932.1 L 3155.69 1004.83 Z " fill-rule="evenodd" fill="rgb(154,77,118)"/></g><path d=" M 2913.616 1384.363 L 2922.234 1365.685 C 2928.986 1351.054 2922.588 1333.695 2907.958 1326.944 L 2897.099 1321.933 C 2882.468 1315.182 2865.109 1321.579 2858.358 1336.21 L 2832.595 1392.043 C 2827.215 1403.701 2830.184 1417.091 2839.025 1425.457 C 2841.402 1427.821 2844.222 1429.819 2847.44 1431.304 L 2903.273 1457.068 C 2917.903 1463.819 2935.263 1457.422 2942.014 1442.791 L 2947.024 1431.932 C 2953.776 1417.302 2947.378 1399.943 2932.748 1393.192 L 2913.616 1384.363 Z " fill-rule="evenodd" fill="rgb(77,53,51)"/><path d=" M 3171.668 1360.605 L 3166.253 1340.759 C 3162.012 1325.214 3145.948 1316.038 3130.403 1320.279 L 3118.865 1323.427 C 3103.321 1327.669 3094.144 1343.733 3098.385 1359.277 L 3114.572 1418.599 C 3117.952 1430.986 3128.838 1439.329 3140.988 1440.047 C 3144.328 1440.329 3147.773 1440.045 3151.192 1439.112 L 3210.514 1422.926 C 3226.059 1418.684 3235.236 1402.62 3230.994 1387.075 L 3227.846 1375.538 C 3223.605 1359.993 3207.541 1350.816 3191.996 1355.058 L 3171.668 1360.605 Z " fill-rule="evenodd" fill="rgb(77,53,51)"/></g><rect x="3029" y="1099" width="38" height="215" transform="matrix(1,0,0,1,0,0)" fill="rgb(154,77,118)"/></g></g><g><path d="M 3023.09 856.23 L 3023.09 856.23 C 3035.282 856.23 3045.18 866.72 3045.18 879.642 L 3045.18 916.978 C 3045.18 929.9 3035.282 940.39 3023.09 940.39 L 3023.09 940.39 C 3010.898 940.39 3001 929.9 3001 916.978 L 3001 879.642 C 3001 866.72 3010.898 856.23 3023.09 856.23 Z" style="stroke:none;fill:#2C1E31;stroke-miterlimit:10;"/><path d="M 3127.18 856.1 L 3127.18 856.1 C 3139.41 856.1 3149.34 866.624 3149.34 879.587 L 3149.34 917.043 C 3149.34 930.006 3139.41 940.53 3127.18 940.53 L 3127.18 940.53 C 3114.95 940.53 3105.02 930.006 3105.02 917.043 L 3105.02 879.587 C 3105.02 866.624 3114.95 856.1 3127.18 856.1 Z" style="stroke:none;fill:#2C1E31;stroke-miterlimit:10;"/><rect x="2986" y="855.959" width="37.645" height="15.765" transform="matrix(1,0,0,1,0,0)" fill="rgb(44,30,49)"/><rect x="3125.178" y="855.959" width="37.645" height="15.765" transform="matrix(1,0,0,1,0,0)" fill="rgb(44,30,49)"/></g></g></svg>