<?xml version="1.0" encoding="UTF-8" standalone="no"?><!-- Generator: Gravit.io --><svg xmlns="http://www.w3.org/2000/svg" xmlns:xlink="http://www.w3.org/1999/xlink" style="isolation:isolate" viewBox="1538.69 522.121 730.62 889.757" width="730.62" height="889.757"><g><g><path d=" M 2133.984 724.121 C 2134.009 724.167 2134.034 724.214 2134.059 724.26 L 2140.69 729.496 L 2136.811 729.703 C 2144.56 746.003 2148.897 764.234 2148.897 783.47 L 2148.897 783.47 C 2148.897 852.735 2092.662 908.97 2023.397 908.97 L 1867.397 908.97 C 1838.264 908.97 1811.436 899.022 1790.128 882.34 L 1790.128 882.34 L 1790.128 882.34 L 1777.69 876.121 L 1741.69 824.121 L 1741.69 745.121 L 1751.837 724.121 L 1739.69 724.121 L 1739.69 724.121 L 1739.69 724.121 L 1821.81 571.121 L 1858.574 586.555 L 1879.69 562.121 L 2186.274 724.121 L 2186.274 724.121 L 2133.984 724.121 Z  M 2105.69 927.46 L 2105.69 927.46 L 2105.69 927.46 L 2105.69 927.46 L 2105.69 927.46 L 2105.69 927.46 L 2105.69 1128.96 L 2105.69 1128.96 L 2105.69 1191.501 C 2105.69 1211.436 2089.505 1227.621 2069.57 1227.621 L 1821.81 1227.621 C 1811.412 1227.621 1802.034 1223.218 1795.446 1216.17 C 1740.273 1246.641 1659.629 1267.998 1578.69 1262.96 C 1604.69 1062.71 1579.19 1263.71 1605.69 1061.96 C 1729.69 1093.46 1679.69 1004.96 1776.662 944.96 Q 1781.038 942.252 1785.69 939.753 L 1785.69 926.621 L 1816.123 926.621 Q 1914.359 893.054 2101.069 926.621 L 2105.69 926.621 L 2105.69 927.46 L 2105.69 927.46 L 2105.69 927.46 L 2105.69 927.46 L 2105.69 927.46 L 2105.69 927.46 Z  M 2103.668 1272.726 L 2098.253 1252.88 C 2094.012 1237.336 2077.948 1228.159 2062.403 1232.4 L 2050.865 1235.549 L 2050.865 1235.549 C 2035.321 1239.79 2026.144 1255.854 2030.385 1271.399 L 2046.572 1330.721 C 2049.952 1343.107 2060.838 1351.45 2072.988 1352.169 C 2076.328 1352.45 2079.773 1352.166 2083.192 1351.233 L 2142.514 1335.047 C 2158.059 1330.805 2167.236 1314.741 2162.994 1299.197 L 2159.846 1287.659 C 2155.605 1272.115 2139.541 1262.938 2123.996 1267.179 L 2103.668 1272.726 L 2103.668 1272.726 L 2103.668 1272.726 L 2103.668 1272.726 L 2103.668 1272.726 L 2103.668 1272.726 L 2103.668 1272.726 L 2103.668 1272.726 L 2103.668 1272.726 L 2103.668 1272.726 L 2103.668 1272.726 Z  M 1845.616 1296.484 L 1854.234 1277.806 C 1860.986 1263.176 1854.588 1245.817 1839.958 1239.065 L 1829.099 1234.055 C 1814.468 1227.304 1797.109 1233.701 1790.358 1248.331 L 1764.595 1304.164 C 1759.215 1315.822 1762.184 1329.213 1771.025 1337.578 C 1773.402 1339.942 1776.222 1341.941 1779.44 1343.426 L 1835.273 1369.189 C 1849.903 1375.94 1867.263 1369.543 1874.014 1354.913 L 1879.024 1344.054 C 1885.776 1329.423 1879.378 1312.064 1864.748 1305.313 L 1845.616 1296.484 L 1845.616 1296.484 L 1845.616 1296.484 L 1845.616 1296.484 L 1845.616 1296.484 L 1845.616 1296.484 L 1845.616 1296.484 L 1845.616 1296.484 L 1845.616 1296.484 L 1845.616 1296.484 L 1845.616 1296.484 L 1845.616 1296.484 Z  M 2147.483 1103.384 C 2147.483 1080.803 2165.816 1062.47 2188.397 1062.47 C 2210.977 1062.47 2229.31 1080.803 2229.31 1103.384 C 2229.31 1125.965 2210.977 1144.297 2188.397 1144.297 C 2165.816 1144.297 2147.483 1125.965 2147.483 1103.384 L 2147.483 1103.384 L 2147.483 1103.384 L 2147.483 1103.384 L 2147.483 1103.384 L 2147.483 1103.384 L 2147.483 1103.384 Z " fill-rule="evenodd" fill="rgb(77,53,51)" vector-effect="non-scaling-stroke" stroke-width="80" stroke="rgb(44,30,49)" stroke-linejoin="round" stroke-linecap="round" stroke-miterlimit="3"/><g><g><path d=" M 2105.69 927.46 Q 1873.634 884.96 1776.662 944.96 C 1679.69 1004.96 1729.69 1093.46 1605.69 1061.96 C 1579.19 1263.71 1604.69 1062.71 1578.69 1262.96 C 1699.19 1270.46 1819.033 1219.46 1855.111 1166.96 Q 1891.19 1114.46 2105.69 1128.96 L 2105.69 927.46 Z " fill="rgb(172,40,71)"/><g><path d="M 1867.4 657.97 L 2023.4 657.97 C 2092.665 657.97 2148.9 714.205 2148.9 783.47 L 2148.9 783.47 C 2148.9 852.735 2092.665 908.97 2023.4 908.97 L 1867.4 908.97 C 1798.135 908.97 1741.9 852.735 1741.9 783.47 L 1741.9 783.47 C 1741.9 714.205 1798.135 657.97 1867.4 657.97 Z" style="stroke:none;fill:#DAB163;stroke-miterlimit:10;"/><clipPath id="_clipPath_i3WmJABBNe2OetYw4EbUs8reHIup1Dbn"><path d="M 1867.4 657.97 L 2023.4 657.97 C 2092.665 657.97 2148.9 714.205 2148.9 783.47 L 2148.9 783.47 C 2148.9 852.735 2092.665 908.97 2023.4 908.97 L 1867.4 908.97 C 1798.135 908.97 1741.9 852.735 1741.9 783.47 L 1741.9 783.47 C 1741.9 714.205 1798.135 657.97 1867.4 657.97 Z" style="stroke:none;fill:#DAB163;stroke-miterlimit:10;"/></clipPath><g clip-path="url(#_clipPath_i3WmJABBNe2OetYw4EbUs8reHIup1Dbn)"><path d=" M 1744.678 731.064 L 2149.517 711.224 L 2152.108 764.103 L 1888.237 777.035 L 1817.754 780.489 L 1747.27 783.943 L 1744.678 731.064 Z " fill="rgb(206,146,72)"/></g><circle vector-effect="non-scaling-stroke" cx="1710.526189296429" cy="1100.926935506117" r="38.45680305816313" fill="rgb(218,177,99)"/><circle vector-effect="non-scaling-stroke" cx="2188.3965984709175" cy="1103.3837385642796" r="40.913606116326264" fill="rgb(218,177,99)"/></g><path d=" M 2069.57 926.621 L 2069.57 926.621 L 1821.81 926.621 L 1821.81 926.621 L 1785.69 926.621 L 1785.69 962.741 L 1785.69 987.121 L 1785.69 1191.501 C 1785.69 1211.436 1801.875 1227.621 1821.81 1227.621 L 2069.57 1227.621 C 2089.505 1227.621 2105.69 1211.436 2105.69 1191.501 L 2105.69 987.121 L 2105.69 962.741 L 2105.69 962.741 L 2105.69 926.621 L 2069.57 926.621 Z " fill="rgb(236,39,63)"/><clipPath id="_clipPath_q99GustAtuxtTzcbwhb74qt6lEAfuKrg"><path d=" M 2069.57 926.621 L 2069.57 926.621 L 1821.81 926.621 L 1821.81 926.621 L 1785.69 926.621 L 1785.69 962.741 L 1785.69 987.121 L 1785.69 1191.501 C 1785.69 1211.436 1801.875 1227.621 1821.81 1227.621 L 2069.57 1227.621 C 2089.505 1227.621 2105.69 1211.436 2105.69 1191.501 L 2105.69 987.121 L 2105.69 962.741 L 2105.69 962.741 L 2105.69 926.621 L 2069.57 926.621 Z " fill="rgb(236,39,63)"/></clipPath><g clip-path="url(#_clipPath_q99GustAtuxtTzcbwhb74qt6lEAfuKrg)"><mask id="_mask_cYWHwvugW9mOedhEEb7vLfEJRuFD40Ff" x="-200" y="-200" width="400" height="400"><rect x="-200" y="-200" width="400" height="400" style="fill:white;"/><path d=" M 1770.69 873.121 L 1980.69 1007.121 L 2057.69 926.621 L 1770.69 873.121 Z " fill="black" stroke="none"/></mask><path d=" M 1770.69 873.121 L 1980.69 1007.121 L 2057.69 926.621 L 1770.69 873.121 Z " fill="rgb(222,206,237)"/><path d=" M 1770.69 873.121 L 1980.69 1007.121 L 2057.69 926.621 L 1770.69 873.121 Z " fill="rgb(222,206,237)" mask="url(#_mask_cYWHwvugW9mOedhEEb7vLfEJRuFD40Ff)" vector-effect="non-scaling-stroke" stroke-width="30" stroke="rgb(172,40,71)" stroke-linejoin="miter" stroke-linecap="square" stroke-miterlimit="3"/><path d=" M 2057.69 926.621 L 1980.69 1007.121 L 1770.69 873.121 L 2057.69 926.621 Z  M 2087.69 916.96 L 1983.01 1026.4 L 1697.51 844.22 L 2087.69 916.96 Z " fill-rule="evenodd" fill="rgb(172,40,71)"/></g><path d=" M 1845.616 1296.484 L 1854.234 1277.806 C 1860.986 1263.176 1854.588 1245.817 1839.958 1239.065 L 1829.099 1234.055 C 1814.468 1227.304 1797.109 1233.701 1790.358 1248.331 L 1764.595 1304.164 C 1759.215 1315.822 1762.184 1329.213 1771.025 1337.578 C 1773.402 1339.942 1776.222 1341.941 1779.44 1343.426 L 1835.273 1369.189 C 1849.903 1375.94 1867.263 1369.543 1874.014 1354.913 L 1879.024 1344.054 C 1885.776 1329.423 1879.378 1312.064 1864.748 1305.313 L 1845.616 1296.484 Z " fill-rule="evenodd" fill="rgb(77,53,51)"/><path d=" M 2103.668 1272.726 L 2098.253 1252.88 C 2094.012 1237.336 2077.948 1228.159 2062.403 1232.4 L 2050.865 1235.549 C 2035.321 1239.79 2026.144 1255.854 2030.385 1271.399 L 2046.572 1330.721 C 2049.952 1343.107 2060.838 1351.45 2072.988 1352.169 C 2076.328 1352.45 2079.773 1352.166 2083.192 1351.233 L 2142.514 1335.047 C 2158.059 1330.805 2167.236 1314.741 2162.994 1299.197 L 2159.846 1287.659 C 2155.605 1272.115 2139.541 1262.938 2123.996 1267.179 L 2103.668 1272.726 Z " fill-rule="evenodd" fill="rgb(77,53,51)"/><circle vector-effect="non-scaling-stroke" cx="1981.6278278244254" cy="1068.1213045715763" r="18.64601080389002" fill="rgb(172,40,71)"/><circle vector-effect="non-scaling-stroke" cx="1981.6278278244254" cy="1146.1213045715763" r="18.64601080389002" fill="rgb(172,40,71)"/><path d=" M 1813.69 894.121 L 1847.69 745.121 L 2140.69 729.496 L 2099.69 697.121 L 1813.69 596.121 L 1741.69 745.121 L 1741.69 824.121 L 1777.69 876.121 L 1813.69 894.121 Z " fill="rgb(110,76,48)"/><path d=" M 1739.69 724.121 L 1879.69 562.121 L 2186.274 724.121 L 1739.69 724.121 Z " fill="rgb(172,40,71)"/><path d=" M 1739.69 724.121 L 2186.274 724.121 L 1821.81 571.121 L 1739.69 724.121 Z " fill="rgb(236,39,63)"/></g></g></g><path d="M 1969.07 766.23 L 1969.07 766.23 C 1981.262 766.23 1991.16 776.719 1991.16 789.639 L 1991.16 826.971 C 1991.16 839.891 1981.262 850.38 1969.07 850.38 L 1969.07 850.38 C 1956.878 850.38 1946.98 839.891 1946.98 826.971 L 1946.98 789.639 C 1946.98 776.719 1956.878 766.23 1969.07 766.23 Z" style="stroke:none;fill:#2C1E31;stroke-miterlimit:10;"/><path d="M 2073.16 766.09 L 2073.16 766.09 C 2085.39 766.09 2095.32 776.614 2095.32 789.577 L 2095.32 827.033 C 2095.32 839.996 2085.39 850.52 2073.16 850.52 L 2073.16 850.52 C 2060.93 850.52 2051 839.996 2051 827.033 L 2051 789.577 C 2051 776.614 2060.93 766.09 2073.16 766.09 Z" style="stroke:none;fill:#2C1E31;stroke-miterlimit:10;"/></g></svg>