<?xml version="1.0" encoding="UTF-8" standalone="no"?><!-- Generator: Gravit.io --><svg xmlns="http://www.w3.org/2000/svg" xmlns:xlink="http://www.w3.org/1999/xlink" style="isolation:isolate" viewBox="2370.88 1632 730.62 889.757" width="730.62" height="889.757"><g><g><path d=" M 2966.174 1834 C 2966.199 1834.046 2966.224 1834.092 2966.248 1834.139 L 2972.88 1839.375 L 2969.001 1839.582 L 2969.001 1839.582 C 2976.749 1855.882 2981.086 1874.113 2981.086 1893.349 L 2981.086 1893.349 C 2981.086 1954.833 2936.776 2006.05 2878.374 2016.781 L 2878.374 2016.781 L 2878.374 2016.781 L 2878.374 2016.781 L 2884.19 2022.373 L 2876.053 2027.514 L 2876.053 2027.514 Q 2903.535 2031.156 2933.259 2036.5 L 2933.259 2036.5 L 2933.259 2036.5 L 2933.259 2036.5 L 2937.88 2036.5 L 2937.88 2037.339 L 2937.88 2037.339 L 2937.88 2238.839 L 2937.88 2238.839 L 2937.88 2301.38 C 2937.88 2321.315 2921.695 2337.5 2901.76 2337.5 L 2654 2337.5 C 2643.601 2337.5 2634.223 2333.097 2627.636 2326.049 C 2572.462 2356.52 2491.819 2377.876 2410.88 2372.839 C 2436.88 2172.589 2411.38 2373.589 2437.88 2171.839 C 2504.629 2188.795 2520.959 2170.979 2536.935 2141.555 L 2468.19 2141.555 L 2536.19 2004.373 L 2536.19 2004.373 L 2573.88 1855.355 L 2573.88 1855 L 2574.068 1854.61 L 2575.183 1850.202 L 2576.164 1850.272 L 2584.027 1834 L 2584.027 1834 L 2571.88 1834 L 2571.88 1834 L 2571.88 1834 L 2654 1681 L 2690.764 1696.434 L 2711.88 1672 L 3018.464 1834 L 2966.174 1834 Z  M 2935.858 2382.605 L 2930.443 2362.759 C 2926.201 2347.214 2910.138 2338.038 2894.593 2342.279 L 2883.055 2345.427 L 2883.055 2345.427 C 2867.511 2349.669 2858.334 2365.733 2862.575 2381.277 L 2878.762 2440.599 C 2882.141 2452.986 2893.027 2461.329 2905.178 2462.047 C 2908.518 2462.329 2911.963 2462.045 2915.382 2461.112 L 2974.704 2444.926 C 2990.249 2440.684 2999.425 2424.62 2995.184 2409.075 L 2992.036 2397.538 C 2987.794 2381.993 2971.73 2372.816 2956.186 2377.058 L 2935.858 2382.605 L 2935.858 2382.605 L 2935.858 2382.605 L 2935.858 2382.605 L 2935.858 2382.605 L 2935.858 2382.605 L 2935.858 2382.605 L 2935.858 2382.605 L 2935.858 2382.605 L 2935.858 2382.605 L 2935.858 2382.605 L 2935.858 2382.605 Z  M 2677.805 2406.363 L 2686.424 2387.685 C 2693.175 2373.054 2686.778 2355.695 2672.148 2348.944 L 2661.289 2343.933 C 2646.658 2337.182 2629.299 2343.579 2622.548 2358.21 L 2596.785 2414.043 C 2591.405 2425.701 2594.374 2439.091 2603.215 2447.457 C 2605.591 2449.821 2608.411 2451.819 2611.63 2453.304 L 2667.463 2479.068 C 2682.093 2485.819 2699.452 2479.422 2706.203 2464.791 L 2711.214 2453.932 C 2717.965 2439.302 2711.568 2421.943 2696.938 2415.192 L 2677.805 2406.363 L 2677.805 2406.363 L 2677.805 2406.363 L 2677.805 2406.363 L 2677.805 2406.363 L 2677.805 2406.363 L 2677.805 2406.363 L 2677.805 2406.363 L 2677.805 2406.363 L 2677.805 2406.363 L 2677.805 2406.363 L 2677.805 2406.363 L 2677.805 2406.363 Z  M 2979.673 2213.262 C 2979.673 2190.682 2998.006 2172.349 3020.586 2172.349 C 3043.167 2172.349 3061.5 2190.682 3061.5 2213.262 C 3061.5 2235.843 3043.167 2254.176 3020.586 2254.176 C 2998.006 2254.176 2979.673 2235.843 2979.673 2213.262 L 2979.673 2213.262 L 2979.673 2213.262 L 2979.673 2213.262 L 2979.673 2213.262 L 2979.673 2213.262 L 2979.673 2213.262 Z " fill-rule="evenodd" fill="rgb(0,139,139)" vector-effect="non-scaling-stroke" stroke-width="80" stroke="rgb(0,0,0)" stroke-linejoin="round" stroke-linecap="round" stroke-miterlimit="3"/><g><path d=" M 2536.19 2004.373 L 2575.183 1850.202 L 2715.435 1860.108 L 2884.19 2022.373 L 2695.556 2141.555 L 2468.19 2141.555 L 2536.19 2004.373 Z " fill="rgb(16,18,28)"/><g><path d=" M 2937.88 2037.339 Q 2705.824 1994.839 2608.852 2054.839 C 2511.88 2114.839 2561.88 2203.339 2437.88 2171.839 C 2411.38 2373.589 2436.88 2172.589 2410.88 2372.839 C 2531.38 2380.339 2651.223 2329.339 2687.301 2276.839 Q 2723.38 2224.339 2937.88 2238.839 L 2937.88 2037.339 Z " fill="rgb(0,139,139)"/><g><path d="M 2699.59 1767.85 L 2855.59 1767.85 C 2924.855 1767.85 2981.09 1824.085 2981.09 1893.35 L 2981.09 1893.35 C 2981.09 1962.615 2924.855 2018.85 2855.59 2018.85 L 2699.59 2018.85 C 2630.325 2018.85 2574.09 1962.615 2574.09 1893.35 L 2574.09 1893.35 C 2574.09 1824.085 2630.325 1767.85 2699.59 1767.85 Z" style="stroke:none;fill:#6E4C30;stroke-miterlimit:10;"/><clipPath id="_clipPath_QX0xIfiNkBUiqXKTJIlhTWmGv4aPjWq4"><path d="M 2699.59 1767.85 L 2855.59 1767.85 C 2924.855 1767.85 2981.09 1824.085 2981.09 1893.35 L 2981.09 1893.35 C 2981.09 1962.615 2924.855 2018.85 2855.59 2018.85 L 2699.59 2018.85 C 2630.325 2018.85 2574.09 1962.615 2574.09 1893.35 L 2574.09 1893.35 C 2574.09 1824.085 2630.325 1767.85 2699.59 1767.85 Z" style="stroke:none;fill:#6E4C30;stroke-miterlimit:10;"/></clipPath><g clip-path="url(#_clipPath_QX0xIfiNkBUiqXKTJIlhTWmGv4aPjWq4)"><path d=" M 2576.868 1840.943 L 2981.707 1821.103 L 2984.298 1873.982 L 2720.427 1886.914 L 2649.943 1890.368 L 2579.46 1893.822 L 2576.868 1840.943 Z " fill="rgb(77,53,51)"/></g><circle vector-effect="non-scaling-stroke" cx="2542.715984709182" cy="2210.8056309345407" r="38.45680305816313" fill="rgb(110,76,48)"/><circle vector-effect="non-scaling-stroke" cx="3020.5863938836706" cy="2213.2624339927033" r="40.913606116326264" fill="rgb(110,76,48)"/></g><path d=" M 2901.76 2036.5 L 2901.76 2036.5 L 2654 2036.5 L 2654 2036.5 L 2617.88 2036.5 L 2617.88 2072.62 L 2617.88 2097 L 2617.88 2301.38 C 2617.88 2321.315 2634.064 2337.5 2654 2337.5 L 2901.76 2337.5 C 2921.695 2337.5 2937.88 2321.315 2937.88 2301.38 L 2937.88 2097 L 2937.88 2072.62 L 2937.88 2072.62 L 2937.88 2036.5 L 2901.76 2036.5 Z " fill="rgb(98,164,119)"/><clipPath id="_clipPath_c8emtVTiaTsEyarnp5Nno0uzRlhpqZMG"><path d=" M 2901.76 2036.5 L 2901.76 2036.5 L 2654 2036.5 L 2654 2036.5 L 2617.88 2036.5 L 2617.88 2072.62 L 2617.88 2097 L 2617.88 2301.38 C 2617.88 2321.315 2634.064 2337.5 2654 2337.5 L 2901.76 2337.5 C 2921.695 2337.5 2937.88 2321.315 2937.88 2301.38 L 2937.88 2097 L 2937.88 2072.62 L 2937.88 2072.62 L 2937.88 2036.5 L 2901.76 2036.5 Z " fill="rgb(98,164,119)"/></clipPath><g clip-path="url(#_clipPath_c8emtVTiaTsEyarnp5Nno0uzRlhpqZMG)"><mask id="_mask_CzbYeyTUuyFj0DJQ19iClkwPyyHQDPwc" x="-200" y="-200" width="400" height="400"><rect x="-200" y="-200" width="400" height="400" style="fill:white;"/><path d=" M 2602.88 1983 L 2812.88 2117 L 2889.88 2036.5 L 2602.88 1983 Z " fill="black" stroke="none"/></mask><path d=" M 2602.88 1983 L 2812.88 2117 L 2889.88 2036.5 L 2602.88 1983 Z " fill="rgb(222,206,237)"/><path d=" M 2602.88 1983 L 2812.88 2117 L 2889.88 2036.5 L 2602.88 1983 Z " fill="rgb(222,206,237)" mask="url(#_mask_CzbYeyTUuyFj0DJQ19iClkwPyyHQDPwc)" vector-effect="non-scaling-stroke" stroke-width="30" stroke="rgb(0,139,139)" stroke-linejoin="miter" stroke-linecap="square" stroke-miterlimit="3"/><path d=" M 2889.879 2036.5 L 2812.879 2117 L 2602.879 1983 L 2889.879 2036.5 Z  M 2919.88 2026.839 L 2815.2 2136.279 L 2529.7 1954.099 L 2919.88 2026.839 Z " fill-rule="evenodd" fill="rgb(0,139,139)"/></g><path d=" M 2677.805 2406.363 L 2686.424 2387.685 C 2693.175 2373.054 2686.778 2355.695 2672.148 2348.944 L 2661.289 2343.933 C 2646.658 2337.182 2629.299 2343.579 2622.548 2358.21 L 2596.785 2414.043 C 2591.405 2425.701 2594.374 2439.091 2603.215 2447.457 C 2605.591 2449.821 2608.411 2451.819 2611.63 2453.304 L 2667.463 2479.068 C 2682.093 2485.819 2699.452 2479.422 2706.203 2464.791 L 2711.214 2453.932 C 2717.965 2439.302 2711.568 2421.943 2696.938 2415.192 L 2677.805 2406.363 Z " fill-rule="evenodd" fill="rgb(0,139,139)"/><path d=" M 2935.858 2382.605 L 2930.443 2362.759 C 2926.201 2347.214 2910.138 2338.038 2894.593 2342.279 L 2883.055 2345.427 C 2867.511 2349.669 2858.334 2365.733 2862.575 2381.277 L 2878.762 2440.599 C 2882.141 2452.986 2893.027 2461.329 2905.178 2462.047 C 2908.518 2462.329 2911.963 2462.045 2915.382 2461.112 L 2974.704 2444.926 C 2990.249 2440.684 2999.425 2424.62 2995.184 2409.075 L 2992.036 2397.538 C 2987.794 2381.993 2971.73 2372.816 2956.186 2377.058 L 2935.858 2382.605 Z " fill-rule="evenodd" fill="rgb(0,139,139)"/><circle vector-effect="non-scaling-stroke" cx="2813.817623237178" cy="2178" r="18.64601080389002" fill="rgb(0,139,139)"/><circle vector-effect="non-scaling-stroke" cx="2813.817623237178" cy="2256" r="18.64601080389002" fill="rgb(0,139,139)"/><path d=" M 2645.88 2004 L 2679.88 1855 L 2972.88 1839.375 L 2931.88 1807 L 2645.88 1706 L 2573.88 1855 L 2573.88 1934 L 2609.88 1986 L 2645.88 2004 Z " fill="rgb(44,30,49)"/><path d=" M 2571.88 1834 L 2711.88 1672 L 3018.464 1834 L 2571.88 1834 Z " fill="rgb(0,139,139)"/><path d=" M 2571.88 1834 L 3018.464 1834 L 2654 1681 L 2571.88 1834 Z " fill="rgb(98,164,119)"/></g></g></g><path d="M 2786.05 1873.15 L 2786.05 1873.15 C 2798.242 1873.15 2808.14 1883.64 2808.14 1896.562 L 2808.14 1933.898 C 2808.14 1946.82 2798.242 1957.31 2786.05 1957.31 L 2786.05 1957.31 C 2773.858 1957.31 2763.96 1946.82 2763.96 1933.898 L 2763.96 1896.562 C 2763.96 1883.64 2773.858 1873.15 2786.05 1873.15 Z" style="stroke:none;fill:#000000;stroke-miterlimit:10;"/><path d="M 2890.14 1873.02 L 2890.14 1873.02 C 2902.37 1873.02 2912.3 1883.544 2912.3 1896.507 L 2912.3 1933.963 C 2912.3 1946.926 2902.37 1957.45 2890.14 1957.45 L 2890.14 1957.45 C 2877.91 1957.45 2867.98 1946.926 2867.98 1933.963 L 2867.98 1896.507 C 2867.98 1883.544 2877.91 1873.02 2890.14 1873.02 Z" style="stroke:none;fill:#000000;stroke-miterlimit:10;"/><rect x="2748.958" y="1872.879" width="37.645" height="15.765" transform="matrix(1,0,0,1,0,0)" fill="rgb(0,0,0)"/><rect x="2888.136" y="1872.879" width="37.645" height="15.765" transform="matrix(1,0,0,1,0,0)" fill="rgb(0,0,0)"/></g></svg>