<?xml version="1.0" encoding="utf-8"?>
<svg id="master-artboard" viewBox="0 0 1400 980" version="1.1" xmlns="http://www.w3.org/2000/svg" x="0px" y="0px" style="enable-background:new 0 0 336 235.2;" width="1400px" height="980px"><rect id="ee-background" x="0" y="0" width="1400" height="980" style="fill: white; fill-opacity: 0; pointer-events: none;"/>














<g transform="matrix(0.6533333659172058, 0, 0, 0.6533333659172058, -2249.7999945120196, 149.6610260009765)"><g><path d="M 4015 -229.072998 H 5015 V 1270.927002 H 4015 V -229.072998 Z" transform="matrix(1,0,0,1,0,0)" fill="none"/><g><path d=" M 4678.069 480.549 Q 4647.184 474.996 4618.719 471.281 L 4618.719 471.281 L 4627 466.049 L 4621.824 461.072 L 4621.824 461.072 L 4621.824 461.072 L 4621.824 461.072 C 4680.897 450.892 4725.897 399.359 4725.897 337.398 L 4725.897 337.398 C 4725.897 319.644 4722.202 302.746 4715.54 287.431 L 4715.69 287.423 L 4715.37 287.042 C 4714.025 283.979 4712.561 280.979 4710.984 278.049 L 4710.984 278.049 L 4763.274 278.049 L 4763.274 278.049 L 4763.274 278.049 L 4456.69 116.049 L 4435.574 140.482 L 4398.81 125.049 L 4316.69 278.049 L 4316.69 278.049 L 4328.77 278.049 L 4321.018 294.092 L 4321.018 294.092 L 4317.993 293.878 L 4279 448.049 L 4279 448.049 L 4195 585.231 L 4281.947 585.231 C 4265.906 614.877 4249.721 632.915 4182.69 615.887 C 4156.19 817.637 4181.69 616.637 4155.69 816.887 C 4236.629 821.925 4317.273 800.569 4372.446 770.098 C 4379.034 777.145 4388.412 781.549 4398.81 781.549 L 4646.57 781.549 C 4666.505 781.549 4682.69 765.364 4682.69 745.429 L 4682.69 682.887 L 4682.69 682.887 L 4682.69 481.387 L 4682.69 481.387 L 4682.69 480.549 L 4678.069 480.549 L 4678.069 480.549 Z  M 4680.668 826.653 L 4675.253 806.808 C 4671.012 791.263 4654.948 782.086 4639.403 786.328 L 4627.865 789.476 L 4627.865 789.476 C 4612.321 793.717 4603.144 809.781 4607.385 825.326 L 4623.572 884.648 C 4626.952 897.034 4637.838 905.378 4649.988 906.096 C 4653.328 906.378 4656.773 906.094 4660.192 905.161 L 4719.514 888.974 C 4735.059 884.733 4744.236 868.669 4739.994 853.124 L 4736.846 841.587 C 4732.605 826.042 4716.541 816.865 4700.996 821.107 L 4680.668 826.653 L 4680.668 826.653 L 4680.668 826.653 L 4680.668 826.653 L 4680.668 826.653 L 4680.668 826.653 L 4680.668 826.653 L 4680.668 826.653 L 4680.668 826.653 L 4680.668 826.653 L 4680.668 826.653 Z  M 4422.616 850.412 L 4431.234 831.734 C 4437.986 817.103 4431.588 799.744 4416.958 792.993 L 4406.099 787.982 C 4391.468 781.231 4374.109 787.628 4367.358 802.259 L 4341.595 858.092 C 4336.215 869.75 4339.184 883.14 4348.025 891.506 C 4350.402 893.87 4353.222 895.868 4356.44 897.353 L 4412.273 923.117 C 4426.903 929.868 4444.263 923.471 4451.014 908.84 L 4456.024 897.981 C 4462.776 883.351 4456.378 865.991 4441.748 859.24 L 4422.616 850.412 L 4422.616 850.412 L 4422.616 850.412 L 4422.616 850.412 L 4422.616 850.412 L 4422.616 850.412 L 4422.616 850.412 L 4422.616 850.412 L 4422.616 850.412 L 4422.616 850.412 L 4422.616 850.412 L 4422.616 850.412 Z  M 4724.483 657.311 C 4724.483 634.73 4742.816 616.398 4765.397 616.398 C 4787.977 616.398 4806.31 634.73 4806.31 657.311 C 4806.31 679.892 4787.977 698.225 4765.397 698.225 C 4742.816 698.225 4724.483 679.892 4724.483 657.311 L 4724.483 657.311 L 4724.483 657.311 L 4724.483 657.311 L 4724.483 657.311 L 4724.483 657.311 Z " fill-rule="evenodd" fill="rgb(77,53,51)" vector-effect="non-scaling-stroke" stroke-width="80" stroke="rgb(44,30,49)" stroke-linejoin="round" stroke-linecap="round" stroke-miterlimit="3"/><g><path d=" M 4279 448.049 L 4317.993 293.878 L 4458.245 303.784 L 4627 466.049 L 4438.367 585.231 L 4195 585.231 L 4279 448.049 Z " fill="rgb(233,133,55)"/><g><path d=" M 4682.69 481.387 Q 4450.634 438.887 4353.662 498.887 C 4256.69 558.887 4306.69 647.387 4182.69 615.887 C 4156.19 817.637 4181.69 616.637 4155.69 816.887 C 4276.19 824.387 4396.033 773.387 4432.111 720.887 Q 4468.19 668.387 4682.69 682.887 L 4682.69 481.387 Z " fill="rgb(154,77,118)"/><g><path d="M 4444.4 211.9 L 4600.4 211.9 C 4669.665 211.9 4725.9 268.135 4725.9 337.4 L 4725.9 337.4 C 4725.9 406.665 4669.665 462.9 4600.4 462.9 L 4444.4 462.9 C 4375.135 462.9 4318.9 406.665 4318.9 337.4 L 4318.9 337.4 C 4318.9 268.135 4375.135 211.9 4444.4 211.9 Z" style="stroke:none;fill:#F6E8E0;stroke-miterlimit:10;"/><clipPath id="_clipPath_mCrW9ie5HWEs1TdTR51YPldP9PSWUH3P"><path d="M 4444.4 211.9 L 4600.4 211.9 C 4669.665 211.9 4725.9 268.135 4725.9 337.4 L 4725.9 337.4 C 4725.9 406.665 4669.665 462.9 4600.4 462.9 L 4444.4 462.9 C 4375.135 462.9 4318.9 406.665 4318.9 337.4 L 4318.9 337.4 C 4318.9 268.135 4375.135 211.9 4444.4 211.9 Z" style="stroke:none;fill:#F6E8E0;stroke-miterlimit:10;"/></clipPath><g clip-path="url(#_clipPath_mCrW9ie5HWEs1TdTR51YPldP9PSWUH3P)"><path d="M 4317.338867 262.868011 H 4731.251862 V 334.206009 H 4317.338867 V 262.868011 Z" transform="matrix(0.999,-0.039,0.039,0.999,-8.222,177.446)" fill="rgb(255,209,213)"/></g><path d="M 4325.98317 654.85437 A 38.456802 38.456802 0 0 1 4287.526367 693.311172 A 38.456802 38.456802 0 0 1 4249.069565 654.85437 A 38.456802 38.456802 0 0 1 4287.526367 616.397568 A 38.456802 38.456802 0 0 1 4325.98317 654.85437 Z" vector-effect="non-scaling-stroke" fill="rgb(246,232,224)"/><path d="M 4806.310089 657.311157 A 40.913605 40.913605 0 0 1 4765.396484 698.224762 A 40.913605 40.913605 0 0 1 4724.48288 657.311157 A 40.913605 40.913605 0 0 1 4765.396484 616.397552 A 40.913605 40.913605 0 0 1 4806.310089 657.311157 Z" vector-effect="non-scaling-stroke" fill="rgb(246,232,224)"/></g><path d=" M 4388.69 452.049 L 4422.69 303.049 L 4715.69 287.423 L 4682.69 248.049 L 4388.69 154.049 L 4316.69 303.049 L 4316.69 382.049 L 4352.69 434.049 L 4388.69 452.049 Z " fill="rgb(243,168,51)"/><path d=" M 4316.69 278.049 L 4456.69 116.049 L 4763.274 278.049 L 4316.69 278.049 Z " fill="rgb(154,77,118)"/><path d=" M 4316.69 278.049 L 4763.274 278.049 L 4398.81 125.049 L 4316.69 278.049 Z " fill="rgb(200,120,175)"/><path d=" M 4646.57 480.549 L 4646.57 480.549 L 4398.81 480.549 L 4398.81 480.549 L 4362.69 480.549 L 4362.69 516.669 L 4362.69 541.049 L 4362.69 745.429 C 4362.69 765.364 4378.875 781.549 4398.81 781.549 L 4646.57 781.549 C 4666.505 781.549 4682.69 765.364 4682.69 745.429 L 4682.69 541.049 L 4682.69 516.669 L 4682.69 516.669 L 4682.69 480.549 L 4646.57 480.549 Z " fill="rgb(200,120,175)"/><clipPath id="_clipPath_zle0EIZgyfGnrDPg4UMtXXw76W6TtCdh"><path d=" M 4646.57 480.549 L 4646.57 480.549 L 4398.81 480.549 L 4398.81 480.549 L 4362.69 480.549 L 4362.69 516.669 L 4362.69 541.049 L 4362.69 745.429 C 4362.69 765.364 4378.875 781.549 4398.81 781.549 L 4646.57 781.549 C 4666.505 781.549 4682.69 765.364 4682.69 745.429 L 4682.69 541.049 L 4682.69 516.669 L 4682.69 516.669 L 4682.69 480.549 L 4646.57 480.549 Z " fill="rgb(200,120,175)"/></clipPath><g clip-path="url(#_clipPath_zle0EIZgyfGnrDPg4UMtXXw76W6TtCdh)"><mask id="_mask_zKXARkwI6fS1D9ysp7IL6cSf3IQOZhfZ" x="-200" y="-200" width="400%" height="400%"><path d="M -2000 -3000 H 2000 V 3000 H -2000 V -3000 Z" style="fill:white;"/><path d=" M 4347.69 427.049 L 4557.69 561.049 L 4634.69 480.549 L 4347.69 427.049 Z " fill="black" stroke="none"/></mask><path d=" M 4347.69 427.049 L 4557.69 561.049 L 4634.69 480.549 L 4347.69 427.049 Z " fill="rgb(222,206,237)"/><path d=" M 4347.69 427.049 L 4557.69 561.049 L 4634.69 480.549 L 4347.69 427.049 Z " fill="rgb(222,206,237)" mask="url(#_mask_zKXARkwI6fS1D9ysp7IL6cSf3IQOZhfZ)" vector-effect="non-scaling-stroke" stroke-width="30" stroke="rgb(154,77,118)" stroke-linejoin="miter" stroke-linecap="square" stroke-miterlimit="3"/><path d=" M 4634.69 480.549 L 4557.69 561.049 L 4347.69 427.049 L 4634.69 480.549 Z  M 4664.69 470.879 L 4560.01 580.319 L 4274.51 398.149 L 4664.69 470.879 Z " fill-rule="evenodd" fill="rgb(154,77,118)"/></g><path d=" M 4422.616 850.412 L 4431.234 831.734 C 4437.986 817.103 4431.588 799.744 4416.958 792.993 L 4406.099 787.982 C 4391.468 781.231 4374.109 787.628 4367.358 802.259 L 4341.595 858.092 C 4336.215 869.75 4339.184 883.14 4348.025 891.506 C 4350.402 893.87 4353.222 895.868 4356.44 897.353 L 4412.273 923.117 C 4426.903 929.868 4444.263 923.471 4451.014 908.84 L 4456.024 897.981 C 4462.776 883.351 4456.378 865.991 4441.748 859.24 L 4422.616 850.412 Z " fill-rule="evenodd" fill="rgb(77,53,51)"/><path d=" M 4680.668 826.653 L 4675.253 806.808 C 4671.012 791.263 4654.948 782.086 4639.403 786.328 L 4627.865 789.476 C 4612.321 793.717 4603.144 809.781 4607.385 825.326 L 4623.572 884.648 C 4626.952 897.034 4637.838 905.378 4649.988 906.096 C 4653.328 906.378 4656.773 906.094 4660.192 905.161 L 4719.514 888.974 C 4735.059 884.733 4744.236 868.669 4739.994 853.124 L 4736.846 841.587 C 4732.605 826.042 4716.541 816.865 4700.996 821.107 L 4680.668 826.653 Z " fill-rule="evenodd" fill="rgb(77,53,51)"/></g><path d="M 4538 565.049011 H 4576 V 780.049011 H 4538 V 565.049011 Z" transform="matrix(1,0,0,1,0,0)" fill="rgb(154,77,118)"/></g></g></g></g></svg>