<?xml version="1.0" encoding="UTF-8" standalone="no"?><!-- Generator: Gravit.io --><svg xmlns="http://www.w3.org/2000/svg" xmlns:xlink="http://www.w3.org/1999/xlink" style="isolation:isolate" viewBox="2578.69 1515.121 730.62 889.757" width="730.62" height="889.757"><g><path d=" M 3173.984 1717.121 C 3174.009 1717.167 3174.034 1717.214 3174.059 1717.26 L 3180.69 1722.496 L 3176.811 1722.703 L 3176.811 1722.703 C 3184.56 1739.003 3188.897 1757.234 3188.897 1776.47 L 3188.897 1776.47 C 3188.897 1837.955 3144.586 1889.172 3086.184 1899.903 L 3086.184 1899.903 L 3086.184 1899.903 L 3086.184 1899.903 L 3092 1905.495 L 3083.864 1910.635 L 3083.864 1910.635 Q 3111.345 1914.278 3141.069 1919.621 L 3141.069 1919.621 L 3141.069 1919.621 L 3141.069 1919.621 L 3145.69 1919.621 L 3145.69 1920.46 L 3145.69 1920.46 L 3145.69 2121.96 L 3145.69 2121.96 L 3145.69 2184.501 C 3145.69 2204.436 3129.505 2220.621 3109.57 2220.621 L 2861.81 2220.621 C 2851.412 2220.621 2842.034 2216.218 2835.446 2209.17 C 2780.273 2239.641 2699.629 2260.998 2618.69 2255.96 C 2644.69 2055.71 2619.19 2256.71 2645.69 2054.96 C 2712.439 2071.916 2728.769 2054.101 2744.745 2024.676 L 2676 2024.676 L 2744 1887.495 L 2744 1887.495 L 2781.69 1738.476 L 2781.69 1738.121 L 2781.878 1737.732 L 2782.993 1733.324 L 2783.975 1733.393 L 2791.837 1717.121 L 2791.837 1717.121 L 2779.69 1717.121 L 2779.69 1717.121 L 2779.69 1717.121 L 2861.81 1564.121 L 2898.574 1579.555 L 2919.69 1555.121 L 3226.274 1717.121 L 3173.984 1717.121 Z  M 3143.668 2265.726 L 3138.253 2245.88 C 3134.012 2230.336 3117.948 2221.159 3102.403 2225.4 L 3090.865 2228.549 L 3090.865 2228.549 C 3075.321 2232.79 3066.144 2248.854 3070.385 2264.399 L 3086.572 2323.721 C 3089.952 2336.107 3100.838 2344.45 3112.988 2345.169 C 3116.328 2345.45 3119.773 2345.166 3123.192 2344.233 L 3182.514 2328.047 C 3198.059 2323.805 3207.236 2307.741 3202.994 2292.197 L 3199.846 2280.659 C 3195.605 2265.115 3179.541 2255.938 3163.996 2260.179 L 3143.668 2265.726 L 3143.668 2265.726 L 3143.668 2265.726 L 3143.668 2265.726 L 3143.668 2265.726 L 3143.668 2265.726 L 3143.668 2265.726 L 3143.668 2265.726 L 3143.668 2265.726 L 3143.668 2265.726 L 3143.668 2265.726 L 3143.668 2265.726 Z  M 2885.616 2289.484 L 2894.234 2270.806 C 2900.986 2256.176 2894.588 2238.817 2879.958 2232.065 L 2869.099 2227.055 C 2854.468 2220.304 2837.109 2226.701 2830.358 2241.331 L 2804.595 2297.164 C 2799.215 2308.822 2802.184 2322.213 2811.025 2330.578 C 2813.402 2332.942 2816.222 2334.941 2819.44 2336.426 L 2875.273 2362.189 C 2889.903 2368.94 2907.263 2362.543 2914.014 2347.913 L 2919.024 2337.054 C 2925.776 2322.423 2919.378 2305.064 2904.748 2298.313 L 2885.616 2289.484 L 2885.616 2289.484 L 2885.616 2289.484 L 2885.616 2289.484 L 2885.616 2289.484 L 2885.616 2289.484 L 2885.616 2289.484 L 2885.616 2289.484 L 2885.616 2289.484 L 2885.616 2289.484 L 2885.616 2289.484 L 2885.616 2289.484 L 2885.616 2289.484 Z  M 3187.483 2096.384 C 3187.483 2073.803 3205.816 2055.47 3228.397 2055.47 C 3250.977 2055.47 3269.31 2073.803 3269.31 2096.384 C 3269.31 2118.965 3250.977 2137.297 3228.397 2137.297 C 3205.816 2137.297 3187.483 2118.965 3187.483 2096.384 L 3187.483 2096.384 L 3187.483 2096.384 L 3187.483 2096.384 L 3187.483 2096.384 L 3187.483 2096.384 L 3187.483 2096.384 Z " fill-rule="evenodd" fill="rgb(0,139,139)" vector-effect="non-scaling-stroke" stroke-width="80" stroke="rgb(0,0,0)" stroke-linejoin="round" stroke-linecap="round" stroke-miterlimit="3"/><g><path d=" M 2744 1887.495 L 2782.993 1733.324 L 2923.245 1743.229 L 3092 1905.495 L 2903.367 2024.676 L 2676 2024.676 L 2744 1887.495 Z " fill="rgb(16,18,28)"/><g><path d=" M 3145.69 1920.46 Q 2913.634 1877.96 2816.662 1937.96 C 2719.69 1997.96 2769.69 2086.46 2645.69 2054.96 C 2619.19 2256.71 2644.69 2055.71 2618.69 2255.96 C 2739.19 2263.46 2859.033 2212.46 2895.111 2159.96 Q 2931.19 2107.46 3145.69 2121.96 L 3145.69 1920.46 Z " fill="rgb(0,139,139)"/><g><path d="M 2907.4 1650.97 L 3063.4 1650.97 C 3132.665 1650.97 3188.9 1707.205 3188.9 1776.47 L 3188.9 1776.47 C 3188.9 1845.735 3132.665 1901.97 3063.4 1901.97 L 2907.4 1901.97 C 2838.135 1901.97 2781.9 1845.735 2781.9 1776.47 L 2781.9 1776.47 C 2781.9 1707.205 2838.135 1650.97 2907.4 1650.97 Z" style="stroke:none;fill:#6E4C30;stroke-miterlimit:10;"/><clipPath id="_clipPath_ZyZC2svt4p015NDVIQU4ntHblW2c71"><path d="M 2907.4 1650.97 L 3063.4 1650.97 C 3132.665 1650.97 3188.9 1707.205 3188.9 1776.47 L 3188.9 1776.47 C 3188.9 1845.735 3132.665 1901.97 3063.4 1901.97 L 2907.4 1901.97 C 2838.135 1901.97 2781.9 1845.735 2781.9 1776.47 L 2781.9 1776.47 C 2781.9 1707.205 2838.135 1650.97 2907.4 1650.97 Z" style="stroke:none;fill:#6E4C30;stroke-miterlimit:10;"/></clipPath><g clip-path="url(#_clipPath_ZyZC2svt4p015NDVIQU4ntHblW2c71)"><path d=" M 2784.678 1724.064 L 3189.517 1704.224 L 3192.108 1757.103 L 2928.237 1770.035 L 2857.754 1773.489 L 2787.27 1776.943 L 2784.678 1724.064 Z " fill="rgb(77,53,51)"/></g><circle vector-effect="non-scaling-stroke" cx="2750.5261892964295" cy="2093.926935506117" r="38.45680305816313" fill="rgb(110,76,48)"/><circle vector-effect="non-scaling-stroke" cx="3228.3965984709184" cy="2096.3837385642796" r="40.913606116326264" fill="rgb(110,76,48)"/></g><path d=" M 3109.57 1919.621 L 3109.57 1919.621 L 2861.81 1919.621 L 2861.81 1919.621 L 2825.69 1919.621 L 2825.69 1955.741 L 2825.69 1980.121 L 2825.69 2184.501 C 2825.69 2204.436 2841.875 2220.621 2861.81 2220.621 L 3109.57 2220.621 C 3129.505 2220.621 3145.69 2204.436 3145.69 2184.501 L 3145.69 1980.121 L 3145.69 1955.741 L 3145.69 1955.741 L 3145.69 1919.621 L 3109.57 1919.621 Z " fill="rgb(98,164,119)"/><clipPath id="_clipPath_YMVHwNXmXqcEJqLQR5q9alS6jY6nBvj9"><path d=" M 3109.57 1919.621 L 3109.57 1919.621 L 2861.81 1919.621 L 2861.81 1919.621 L 2825.69 1919.621 L 2825.69 1955.741 L 2825.69 1980.121 L 2825.69 2184.501 C 2825.69 2204.436 2841.875 2220.621 2861.81 2220.621 L 3109.57 2220.621 C 3129.505 2220.621 3145.69 2204.436 3145.69 2184.501 L 3145.69 1980.121 L 3145.69 1955.741 L 3145.69 1955.741 L 3145.69 1919.621 L 3109.57 1919.621 Z " fill="rgb(98,164,119)"/></clipPath><g clip-path="url(#_clipPath_YMVHwNXmXqcEJqLQR5q9alS6jY6nBvj9)"><mask id="_mask_jMJOXdvMPUUEZDhvLwWxsoPp0qCJMdJ7" x="-200" y="-200" width="400%" height="400%"><rect x="-200%" y="-200%" width="400%" height="400%" style="fill:white;"/><path d=" M 2810.69 1866.121 L 3020.69 2000.121 L 3097.69 1919.621 L 2810.69 1866.121 Z " fill="black" stroke="none"/></mask><path d=" M 2810.69 1866.121 L 3020.69 2000.121 L 3097.69 1919.621 L 2810.69 1866.121 Z " fill="rgb(222,206,237)"/><path d=" M 2810.69 1866.121 L 3020.69 2000.121 L 3097.69 1919.621 L 2810.69 1866.121 Z " fill="rgb(222,206,237)" mask="url(#_mask_jMJOXdvMPUUEZDhvLwWxsoPp0qCJMdJ7)" vector-effect="non-scaling-stroke" stroke-width="30" stroke="rgb(0,139,139)" stroke-linejoin="miter" stroke-linecap="square" stroke-miterlimit="3"/><path d=" M 3097.69 1919.621 L 3020.69 2000.121 L 2810.69 1866.121 L 3097.69 1919.621 Z  M 3127.69 1909.96 L 3023.01 2019.4 L 2737.51 1837.22 L 3127.69 1909.96 Z " fill-rule="evenodd" fill="rgb(0,139,139)"/></g><path d=" M 2885.616 2289.484 L 2894.234 2270.806 C 2900.986 2256.176 2894.588 2238.817 2879.958 2232.065 L 2869.099 2227.055 C 2854.468 2220.304 2837.109 2226.701 2830.358 2241.331 L 2804.595 2297.164 C 2799.215 2308.822 2802.184 2322.213 2811.025 2330.578 C 2813.402 2332.942 2816.222 2334.941 2819.44 2336.426 L 2875.273 2362.189 C 2889.903 2368.94 2907.263 2362.543 2914.014 2347.913 L 2919.024 2337.054 C 2925.776 2322.423 2919.378 2305.064 2904.748 2298.313 L 2885.616 2289.484 Z " fill-rule="evenodd" fill="rgb(0,139,139)"/><path d=" M 3143.668 2265.726 L 3138.253 2245.88 C 3134.012 2230.336 3117.948 2221.159 3102.403 2225.4 L 3090.865 2228.549 C 3075.321 2232.79 3066.144 2248.854 3070.385 2264.399 L 3086.572 2323.721 C 3089.952 2336.107 3100.838 2344.45 3112.988 2345.169 C 3116.328 2345.45 3119.773 2345.166 3123.192 2344.233 L 3182.514 2328.047 C 3198.059 2323.805 3207.236 2307.741 3202.994 2292.197 L 3199.846 2280.659 C 3195.605 2265.115 3179.541 2255.938 3163.996 2260.179 L 3143.668 2265.726 Z " fill-rule="evenodd" fill="rgb(0,139,139)"/><circle vector-effect="non-scaling-stroke" cx="3021.6278278244254" cy="2061.1213045715763" r="18.64601080389002" fill="rgb(0,139,139)"/><circle vector-effect="non-scaling-stroke" cx="3021.6278278244254" cy="2139.1213045715763" r="18.64601080389002" fill="rgb(0,139,139)"/><path d=" M 2853.69 1887.121 L 2887.69 1738.121 L 3180.69 1722.496 L 3139.69 1690.121 L 2853.69 1589.121 L 2781.69 1738.121 L 2781.69 1817.121 L 2817.69 1869.121 L 2853.69 1887.121 Z " fill="rgb(44,30,49)"/><path d=" M 2779.69 1717.121 L 2919.69 1555.121 L 3226.274 1717.121 L 2779.69 1717.121 Z " fill="rgb(0,139,139)"/><path d=" M 2779.69 1717.121 L 3226.274 1717.121 L 2861.81 1564.121 L 2779.69 1717.121 Z " fill="rgb(98,164,119)"/></g></g></g></svg>