<?xml version="1.0" encoding="UTF-8" standalone="no"?><!-- Generator: Gravit.io --><svg xmlns="http://www.w3.org/2000/svg" xmlns:xlink="http://www.w3.org/1999/xlink" style="isolation:isolate" viewBox="1382.69 1472.121 730.62 889.757" width="730.62" height="889.757"><g><path d=" M 1977.984 1674.121 C 1978.009 1674.167 1978.034 1674.214 1978.059 1674.26 L 1984.69 1679.496 L 1980.811 1679.703 C 1988.56 1696.003 1992.897 1714.234 1992.897 1733.47 L 1992.897 1733.47 C 1992.897 1802.735 1936.662 1858.97 1867.397 1858.97 L 1711.397 1858.97 C 1682.264 1858.97 1655.436 1849.022 1634.128 1832.34 L 1634.128 1832.34 L 1634.128 1832.34 L 1621.69 1826.121 L 1585.69 1774.121 L 1585.69 1695.121 L 1595.837 1674.121 L 1583.69 1674.121 L 1583.69 1674.121 L 1583.69 1674.121 L 1665.81 1521.121 L 1702.574 1536.555 L 1723.69 1512.121 L 2030.274 1674.121 L 2030.274 1674.121 L 1977.984 1674.121 L 1977.984 1674.121 Z  M 1949.69 1877.46 L 1949.69 1877.46 L 1949.69 1877.46 L 1949.69 1877.46 L 1949.69 1877.46 L 1949.69 1877.46 L 1949.69 2078.96 L 1949.69 2078.96 L 1949.69 2141.501 C 1949.69 2161.436 1933.505 2177.621 1913.57 2177.621 L 1665.81 2177.621 C 1655.412 2177.621 1646.034 2173.218 1639.446 2166.17 C 1584.273 2196.641 1503.629 2217.998 1422.69 2212.96 C 1448.69 2012.71 1423.19 2213.71 1449.69 2011.96 C 1573.69 2043.46 1523.69 1954.96 1620.662 1894.96 Q 1625.038 1892.252 1629.69 1889.753 L 1629.69 1876.621 L 1660.123 1876.621 Q 1758.359 1843.054 1945.069 1876.621 L 1949.69 1876.621 L 1949.69 1877.46 L 1949.69 1877.46 L 1949.69 1877.46 L 1949.69 1877.46 L 1949.69 1877.46 Z  M 1947.668 2222.726 L 1942.253 2202.88 C 1938.012 2187.336 1921.948 2178.159 1906.403 2182.4 L 1894.865 2185.549 L 1894.865 2185.549 C 1879.321 2189.79 1870.144 2205.854 1874.385 2221.399 L 1890.572 2280.721 C 1893.952 2293.107 1904.838 2301.45 1916.988 2302.169 C 1920.328 2302.45 1923.773 2302.166 1927.192 2301.233 L 1986.514 2285.047 C 2002.059 2280.805 2011.236 2264.741 2006.994 2249.197 L 2003.846 2237.659 C 1999.605 2222.115 1983.541 2212.938 1967.996 2217.179 L 1947.668 2222.726 L 1947.668 2222.726 L 1947.668 2222.726 L 1947.668 2222.726 L 1947.668 2222.726 L 1947.668 2222.726 L 1947.668 2222.726 L 1947.668 2222.726 L 1947.668 2222.726 L 1947.668 2222.726 Z  M 1689.616 2246.484 L 1698.234 2227.806 C 1704.986 2213.176 1698.588 2195.817 1683.958 2189.065 L 1673.099 2184.055 C 1658.468 2177.304 1641.109 2183.701 1634.358 2198.331 L 1608.595 2254.164 C 1603.215 2265.822 1606.184 2279.213 1615.025 2287.578 C 1617.402 2289.942 1620.222 2291.941 1623.44 2293.426 L 1679.273 2319.189 C 1693.903 2325.94 1711.263 2319.543 1718.014 2304.913 L 1723.024 2294.054 C 1729.776 2279.423 1723.378 2262.064 1708.748 2255.313 L 1689.616 2246.484 L 1689.616 2246.484 L 1689.616 2246.484 L 1689.616 2246.484 L 1689.616 2246.484 L 1689.616 2246.484 L 1689.616 2246.484 L 1689.616 2246.484 L 1689.616 2246.484 L 1689.616 2246.484 L 1689.616 2246.484 Z  M 1991.483 2053.384 C 1991.483 2030.803 2009.816 2012.47 2032.397 2012.47 C 2054.977 2012.47 2073.31 2030.803 2073.31 2053.384 C 2073.31 2075.965 2054.977 2094.297 2032.397 2094.297 C 2009.816 2094.297 1991.483 2075.965 1991.483 2053.384 L 1991.483 2053.384 L 1991.483 2053.384 L 1991.483 2053.384 L 1991.483 2053.384 L 1991.483 2053.384 Z " fill-rule="evenodd" fill="rgb(44,30,49)" vector-effect="non-scaling-stroke" stroke-width="80" stroke="rgb(16,18,28)" stroke-linejoin="round" stroke-linecap="round" stroke-miterlimit="3"/><g><g><path d=" M 1949.69 1877.46 Q 1717.634 1834.96 1620.662 1894.96 C 1523.69 1954.96 1573.69 2043.46 1449.69 2011.96 C 1423.19 2213.71 1448.69 2012.71 1422.69 2212.96 C 1543.19 2220.46 1663.033 2169.46 1699.111 2116.96 Q 1735.19 2064.46 1949.69 2078.96 L 1949.69 1877.46 Z " fill="rgb(56,89,179)"/><g><path d="M 1711.4 1607.97 L 1867.4 1607.97 C 1936.665 1607.97 1992.9 1664.205 1992.9 1733.47 L 1992.9 1733.47 C 1992.9 1802.735 1936.665 1858.97 1867.4 1858.97 L 1711.4 1858.97 C 1642.135 1858.97 1585.9 1802.735 1585.9 1733.47 L 1585.9 1733.47 C 1585.9 1664.205 1642.135 1607.97 1711.4 1607.97 Z" style="stroke:none;fill:#A26D3F;stroke-miterlimit:10;"/><clipPath id="_clipPath_LHb6bVa0vTmHZcoFujtx5tzzfhL7mfhS"><path d="M 1711.4 1607.97 L 1867.4 1607.97 C 1936.665 1607.97 1992.9 1664.205 1992.9 1733.47 L 1992.9 1733.47 C 1992.9 1802.735 1936.665 1858.97 1867.4 1858.97 L 1711.4 1858.97 C 1642.135 1858.97 1585.9 1802.735 1585.9 1733.47 L 1585.9 1733.47 C 1585.9 1664.205 1642.135 1607.97 1711.4 1607.97 Z" style="stroke:none;fill:#A26D3F;stroke-miterlimit:10;"/></clipPath><g clip-path="url(#_clipPath_LHb6bVa0vTmHZcoFujtx5tzzfhL7mfhS)"><path d=" M 1588.678 1681.064 L 1993.517 1661.224 L 1996.108 1714.103 L 1732.237 1727.035 L 1661.754 1730.489 L 1591.27 1733.943 L 1588.678 1681.064 Z " fill="rgb(110,76,48)"/></g><circle vector-effect="non-scaling-stroke" cx="1554.5261892964295" cy="2050.926935506117" r="38.45680305816313" fill="rgb(162,109,63)"/><circle vector-effect="non-scaling-stroke" cx="2032.396598470918" cy="2053.3837385642796" r="40.913606116326264" fill="rgb(162,109,63)"/></g><path d=" M 1913.57 1876.621 L 1913.57 1876.621 L 1665.81 1876.621 L 1665.81 1876.621 L 1629.69 1876.621 L 1629.69 1912.741 L 1629.69 1937.121 L 1629.69 2141.501 C 1629.69 2161.436 1645.875 2177.621 1665.81 2177.621 L 1913.57 2177.621 C 1933.505 2177.621 1949.69 2161.436 1949.69 2141.501 L 1949.69 1937.121 L 1949.69 1912.741 L 1949.69 1912.741 L 1949.69 1876.621 L 1913.57 1876.621 Z " fill="rgb(51,136,222)"/><clipPath id="_clipPath_RbDucRJQLMtVleevuhN7nPVkUJZVxP"><path d=" M 1913.57 1876.621 L 1913.57 1876.621 L 1665.81 1876.621 L 1665.81 1876.621 L 1629.69 1876.621 L 1629.69 1912.741 L 1629.69 1937.121 L 1629.69 2141.501 C 1629.69 2161.436 1645.875 2177.621 1665.81 2177.621 L 1913.57 2177.621 C 1933.505 2177.621 1949.69 2161.436 1949.69 2141.501 L 1949.69 1937.121 L 1949.69 1912.741 L 1949.69 1912.741 L 1949.69 1876.621 L 1913.57 1876.621 Z " fill="rgb(51,136,222)"/></clipPath><g clip-path="url(#_clipPath_RbDucRJQLMtVleevuhN7nPVkUJZVxP)"><mask id="_mask_s5vRdgIDHHkVy8Sb36KlwL8xZrrTn5zT" x="-200" y="-200" width="400%" height="400%"><rect x="-200%" y="-200%" width="400%" height="400%" style="fill:white;"/><path d=" M 1614.69 1823.121 L 1824.69 1957.121 L 1901.69 1876.621 L 1614.69 1823.121 Z " fill="black" stroke="none"/></mask><path d=" M 1614.69 1823.121 L 1824.69 1957.121 L 1901.69 1876.621 L 1614.69 1823.121 Z " fill="rgb(222,206,237)"/><path d=" M 1614.69 1823.121 L 1824.69 1957.121 L 1901.69 1876.621 L 1614.69 1823.121 Z " fill="rgb(222,206,237)" mask="url(#_mask_s5vRdgIDHHkVy8Sb36KlwL8xZrrTn5zT)" vector-effect="non-scaling-stroke" stroke-width="30" stroke="rgb(56,89,179)" stroke-linejoin="miter" stroke-linecap="square" stroke-miterlimit="3"/><path d=" M 1901.69 1876.621 L 1824.69 1957.121 L 1614.69 1823.121 L 1901.69 1876.621 Z  M 1931.69 1866.96 L 1827.01 1976.4 L 1541.51 1794.22 L 1931.69 1866.96 Z " fill-rule="evenodd" fill="rgb(56,89,179)"/></g><path d=" M 1689.616 2246.484 L 1698.234 2227.806 C 1704.986 2213.176 1698.588 2195.817 1683.958 2189.065 L 1673.099 2184.055 C 1658.468 2177.304 1641.109 2183.701 1634.358 2198.331 L 1608.595 2254.164 C 1603.215 2265.822 1606.184 2279.213 1615.025 2287.578 C 1617.402 2289.942 1620.222 2291.941 1623.44 2293.426 L 1679.273 2319.189 C 1693.903 2325.94 1711.263 2319.543 1718.014 2304.913 L 1723.024 2294.054 C 1729.776 2279.423 1723.378 2262.064 1708.748 2255.313 L 1689.616 2246.484 Z " fill-rule="evenodd" fill="rgb(77,53,51)"/><path d=" M 1947.668 2222.726 L 1942.253 2202.88 C 1938.012 2187.336 1921.948 2178.159 1906.403 2182.4 L 1894.865 2185.549 C 1879.321 2189.79 1870.144 2205.854 1874.385 2221.399 L 1890.572 2280.721 C 1893.952 2293.107 1904.838 2301.45 1916.988 2302.169 C 1920.328 2302.45 1923.773 2302.166 1927.192 2301.233 L 1986.514 2285.047 C 2002.059 2280.805 2011.236 2264.741 2006.994 2249.197 L 2003.846 2237.659 C 1999.605 2222.115 1983.541 2212.938 1967.996 2217.179 L 1947.668 2222.726 Z " fill-rule="evenodd" fill="rgb(77,53,51)"/><path d=" M 1657.69 1844.121 L 1691.69 1695.121 L 1984.69 1679.496 L 1943.69 1647.121 L 1657.69 1546.121 L 1585.69 1695.121 L 1585.69 1774.121 L 1621.69 1826.121 L 1657.69 1844.121 Z " fill="rgb(77,53,51)"/><path d=" M 1583.69 1674.121 L 1723.69 1512.121 L 2030.274 1674.121 L 1583.69 1674.121 Z " fill="rgb(56,89,179)"/><path d=" M 1583.69 1674.121 L 2030.274 1674.121 L 1665.81 1521.121 L 1583.69 1674.121 Z " fill="rgb(51,136,222)"/></g><rect x="1807" y="1960" width="38" height="217" transform="matrix(1,0,0,1,0,0)" fill="rgb(56,89,179)"/></g></g></svg>