<?xml version="1.0" encoding="UTF-8" standalone="no"?><!-- Generator: Gravit.io --><svg xmlns="http://www.w3.org/2000/svg" xmlns:xlink="http://www.w3.org/1999/xlink" style="isolation:isolate" viewBox="0 0 200 200" width="200" height="200"><defs><clipPath id="_clipPath_FQP6sS6tD5KfgTRUizML8z811WUlsaQR"><rect width="200" height="200"/></clipPath></defs><g clip-path="url(#_clipPath_FQP6sS6tD5KfgTRUizML8z811WUlsaQR)"><path d=" M 106.578 104.606 L 98.709 95.163 L 86.482 109.836 L 81.291 98.588 L 69.389 124.376 L 63.438 130.327 L 69.389 130.327 L 69.389 170 L 80 170 L 80 170 L 117.418 170 L 117.418 170 L 130.611 170 L 130.611 110.327 L 136.562 110.327 L 130.611 104.376 L 118.709 78.588 L 106.807 104.376 L 106.578 104.606 Z " fill-rule="evenodd" fill="rgb(107,38,67)" vector-effect="non-scaling-stroke" stroke-width="8" stroke="rgb(44,30,49)" stroke-linejoin="round" stroke-linecap="round" stroke-miterlimit="3"/><g><path d=" M 80 117.614 L 80 117.614 L 80 170 L 117.418 170 L 117.418 117.614 L 117.418 117.614 L 98.709 95.163 L 80 117.614 Z " fill-rule="evenodd" fill="rgb(107,38,67)"/><g><rect x="69.389" y="130.327" width="23.804" height="39.673" transform="matrix(1,0,0,1,0,0)" fill="rgb(172,40,71)"/><path d=" M 63.438 130.327 L 69.389 124.376 L 81.291 98.588 L 93.193 124.376 L 99.144 130.327 L 63.438 130.327 Z " fill="rgb(236,39,63)"/><path d=" M 77.324 144.212 L 77.324 144.212 L 77.324 152.147 L 85.258 152.147 L 85.258 144.212 L 85.258 144.212 C 85.258 142.023 83.48 140.245 81.291 140.245 C 79.101 140.245 77.324 142.023 77.324 144.212 Z " fill-rule="evenodd" fill="rgb(247,243,183)"/></g><g><rect x="106.807" y="110.327" width="23.804" height="59.673" transform="matrix(1,0,0,1,0,0)" fill="rgb(172,40,71)"/><path d=" M 100.856 110.327 L 106.807 104.376 L 118.709 78.588 L 130.611 104.376 L 136.562 110.327 L 100.856 110.327 Z " fill="rgb(236,39,63)"/><path d=" M 114.742 124.212 L 114.742 124.212 L 114.742 132.147 L 122.676 132.147 L 122.676 124.212 L 122.676 124.212 C 122.676 122.023 120.899 120.245 118.709 120.245 C 116.52 120.245 114.742 122.023 114.742 124.212 Z " fill-rule="evenodd" fill="rgb(247,243,183)"/></g></g></g></svg>