<?xml version="1.0" encoding="UTF-8" standalone="no"?><!-- Generator: Gravit.io --><svg xmlns="http://www.w3.org/2000/svg" xmlns:xlink="http://www.w3.org/1999/xlink" style="isolation:isolate" viewBox="1740 75 200 80" width="200" height="80"><g><rect x="1740" y="75" width="200" height="80" transform="matrix(1,0,0,1,0,0)" fill="none"/><path d=" M 1786.017 127.261 C 1774.412 127.261 1768.681 115.58 1770.257 108.817 C 1773.409 95.291 1790.22 98.365 1812.284 102.669 C 1834.348 106.972 1835.924 106.85 1859.564 105.006 C 1883.204 103.161 1888.282 96.93 1901.591 102.669 C 1916.943 109.288 1909.996 130.335 1891.084 133.409 C 1872.172 136.483 1870.071 126.646 1854.311 127.261 C 1838.55 127.876 1837.767 129.756 1823.189 131.006 C 1808.611 132.256 1798.275 127.261 1786.017 127.261 Z " fill="rgb(162,109,63)"/></g></svg>