<?xml version="1.0" encoding="UTF-8" standalone="no"?><!-- Generator: Gravit.io --><svg xmlns="http://www.w3.org/2000/svg" xmlns:xlink="http://www.w3.org/1999/xlink" style="isolation:isolate" viewBox="1740 235 200 80" width="200" height="80"><g><rect x="1740" y="235" width="200" height="80" transform="matrix(1,0,0,1,0,0)" fill="none"/><path d=" M 1805.358 288.255 C 1797.435 288.255 1793.523 276.574 1794.598 269.811 C 1796.75 256.285 1808.227 259.359 1823.29 263.663 C 1838.353 267.967 1839.429 267.844 1855.568 266 C 1871.707 264.156 1875.173 257.925 1884.259 263.663 C 1894.74 270.283 1889.997 291.329 1877.086 294.403 C 1864.175 297.477 1862.741 287.641 1851.981 288.255 C 1841.222 288.87 1840.687 290.75 1830.735 292 C 1820.783 293.25 1813.726 288.255 1805.358 288.255 Z " fill="rgb(162,109,63)"/></g></svg>