<?xml version="1.0" encoding="UTF-8" standalone="no"?><!-- Generator: Gravit.io --><svg xmlns="http://www.w3.org/2000/svg" xmlns:xlink="http://www.w3.org/1999/xlink" style="isolation:isolate" viewBox="1877.5 357.5 265 425" width="265" height="425"><g><path d=" M 2030 429.975 L 2100 429.975 L 2100 619.975 L 2100 619.975 L 2030 682.197 L 2030 770 L 1990 770 L 1990 682.197 L 1920 619.975 L 1920 429.975 L 1990 429.975 L 1990 429.975 L 1890 429.975 L 1890 399.975 L 1890 399.975 L 1990 399.975 L 1990 370 L 2030 370 L 2030 399.975 L 2130 399.975 L 2130 429.975 L 2030 429.975 L 2030 429.975 Z " fill-rule="evenodd" fill="rgb(54,197,244)" vector-effect="non-scaling-stroke" stroke-width="25" stroke="rgb(44,30,49)" stroke-linejoin="round" stroke-linecap="round" stroke-miterlimit="3"/><g><rect x="1890" y="399.975" width="240" height="30" transform="matrix(1,0,0,1,0,0)" fill="rgb(110,76,48)"/><rect x="1990" y="370" width="40" height="400" transform="matrix(1,0,0,1,0,0)" fill="rgb(110,76,48)"/><path d=" M 2100 619.975 L 2100 429.975 L 1920 429.975 L 1920 619.975 L 2010 699.975 L 2100 619.975 Z " fill-rule="evenodd" fill="rgb(54,197,244)"/><g clip-path="url(#_clipPath_R8gvRQWjXc4ATidrWccPPctkfcajpzcy)"><text transform="matrix(1.488,0,0,1.488,1968.978,583.67)" style="font-family:'Open Sans';font-weight:700;font-size:77px;font-style:normal;fill:#3388de;stroke:none;">A</text></g><defs><clipPath id="_clipPath_R8gvRQWjXc4ATidrWccPPctkfcajpzcy"><rect x="0" y="0" width="80.627" height="105.919" transform="matrix(1.488,0,0,1.488,1950,461.179)"/></clipPath></defs></g></g></svg>