<?xml version="1.0" encoding="UTF-8" standalone="no"?><!-- Generator: Gravit.io --><svg xmlns="http://www.w3.org/2000/svg" xmlns:xlink="http://www.w3.org/1999/xlink" style="isolation:isolate" viewBox="2747.5 357.5 265 425" width="265pt" height="425pt"><g><path d=" M 2900 690 L 2920.909 690 L 2920.909 660 L 2937.273 660 L 2937.273 660 L 2937.273 690 L 2970 690 L 2970 660 L 2970 429.975 L 2900 429.975 L 2900 429.975 L 3000 429.975 L 3000 399.975 L 2900 399.975 L 2900 370 L 2860 370 L 2860 399.975 L 2760 399.975 L 2760 399.975 L 2760 429.975 L 2860 429.975 L 2860 429.975 L 2790 429.975 L 2790 660 L 2790 690 L 2822.727 690 L 2822.727 660 L 2839.091 660 L 2839.091 690 L 2860 690 L 2860 770 L 2900 770 L 2900 690 Z " fill-rule="evenodd" fill="rgb(222,206,237)" vector-effect="non-scaling-stroke" stroke-width="25" stroke="rgb(44,30,49)" stroke-linejoin="round" stroke-linecap="round" stroke-miterlimit="3"/><g><rect x="2760" y="399.975" width="240" height="30" transform="matrix(1,0,0,1,0,0)" fill="rgb(110,76,48)"/><rect x="2860" y="370" width="40" height="400" transform="matrix(1,0,0,1,0,0)" fill="rgb(110,76,48)"/><path d=" M 2937.273 660 L 2920.909 660 L 2920.909 690 L 2888.182 690 L 2888.182 660 L 2871.818 660 L 2871.818 690 L 2839.091 690 L 2839.091 660 L 2822.727 660 L 2822.727 690 L 2790 690 L 2790 660 L 2790 429.975 L 2970 429.975 L 2970 660 L 2970 690 L 2937.273 690 L 2937.273 660 Z " fill-rule="evenodd" fill="rgb(222,206,237)"/><g clip-path="url(#_clipPath_AJDynR4BWJYxgkZzUNKTC31TtoNe6wTG)"><text transform="matrix(1.488,0,0,1.488,2836.096,583.67)" style="font-family:'Open Sans';font-weight:700;font-size:77px;font-style:normal;fill:#b0a7b8;stroke:none;">D</text></g><defs><clipPath id="_clipPath_AJDynR4BWJYxgkZzUNKTC31TtoNe6wTG"><rect x="0" y="0" width="80.627" height="105.919" transform="matrix(1.488,0,0,1.488,2820,461.179)"/></clipPath></defs></g></g></svg>