<?xml version="1.0" encoding="UTF-8" standalone="no"?><!-- Generator: Gravit.io --><svg xmlns="http://www.w3.org/2000/svg" xmlns:xlink="http://www.w3.org/1999/xlink" style="isolation:isolate" viewBox="2167.5 357.5 265 425" width="265" height="425"><g><path d=" M 2320 429.975 L 2390 429.975 L 2390 619.975 L 2390 619.975 L 2390 700 L 2320 653.333 L 2320 770 L 2280 770 L 2280 653.333 L 2210 700 L 2210 619.975 L 2210 429.975 L 2280 429.975 L 2280 429.975 L 2180 429.975 L 2180 399.975 L 2180 399.975 L 2280 399.975 L 2280 370 L 2320 370 L 2320 399.975 L 2420 399.975 L 2420 429.975 L 2320 429.975 L 2320 429.975 Z " fill-rule="evenodd" fill="rgb(250,110,121)" stroke-width="25" stroke="rgb(44,30,49)" stroke-linejoin="round" stroke-linecap="round" stroke-miterlimit="3"/><g><rect x="2180" y="399.975" width="240" height="30" transform="matrix(1,0,0,1,0,0)" fill="rgb(110,76,48)"/><rect x="2280" y="370" width="40" height="400" transform="matrix(1,0,0,1,0,0)" fill="rgb(110,76,48)"/><path d=" M 2390 619.975 L 2390 429.975 L 2210 429.975 L 2210 619.975 L 2210 700 L 2300 640 L 2390 700 L 2390 619.975 Z " fill-rule="evenodd" fill="rgb(250,110,121)"/><g clip-path="url(#_clipPath_tvzqw0RT4SVrI0v3dx2d1IXRoou3ElaA)"><text transform="matrix(1.488,0,0,1.488,2260.013,583.67)" style="font-family:'Open Sans';font-weight:700;font-size:77px;font-style:normal;fill:#ec273f;stroke:none;">B</text></g><defs><clipPath id="_clipPath_tvzqw0RT4SVrI0v3dx2d1IXRoou3ElaA"><rect x="0" y="0" width="80.627" height="105.919" transform="matrix(1.488,0,0,1.488,2240,461.179)"/></clipPath></defs></g></g></svg>