<?xml version="1.0" encoding="UTF-8" standalone="no"?><!-- Generator: Gravit.io --><svg xmlns="http://www.w3.org/2000/svg" xmlns:xlink="http://www.w3.org/1999/xlink" style="isolation:isolate" viewBox="2457.5 357.5 265 425" width="265pt" height="425pt"><g><path d=" M 2610 429.975 L 2680 429.975 L 2680 617.5 L 2680 619.975 L 2679.948 619.975 L 2679.948 619.975 C 2678.556 653.353 2649.098 681.042 2610 688.2 L 2610 770 L 2570 770 L 2570 688.2 C 2530.902 681.042 2501.444 653.353 2500.052 619.975 L 2500 619.975 L 2500 617.5 L 2500 429.975 L 2570 429.975 L 2570 429.975 L 2470 429.975 L 2470 399.975 L 2470 399.975 L 2570 399.975 L 2570 370 L 2610 370 L 2610 399.975 L 2710 399.975 L 2710 429.975 L 2610 429.975 L 2610 429.975 Z " fill-rule="evenodd" fill="rgb(247,243,183)" vector-effect="non-scaling-stroke" stroke-width="25" stroke="rgb(44,30,49)" stroke-linejoin="round" stroke-linecap="round" stroke-miterlimit="3"/><g><rect x="2470" y="399.975" width="240" height="30" transform="matrix(1,0,0,1,0,0)" fill="rgb(110,76,48)"/><rect x="2570" y="370" width="40" height="400" transform="matrix(1,0,0,1,0,0)" fill="rgb(110,76,48)"/><path d=" M 2679.948 619.975 L 2680 619.975 L 2680 617.5 L 2680 429.975 L 2500 429.975 L 2500 617.5 L 2500 619.975 L 2500.052 619.975 C 2501.673 658.845 2541.356 690 2590 690 C 2638.644 690 2678.327 658.845 2679.948 619.975 Z " fill-rule="evenodd" fill="rgb(166,203,150)"/><g clip-path="url(#_clipPath_ZgH01PnvgDZCb2QQGOmGzo8wq5mT12IY)"><text transform="matrix(1.488,0,0,1.488,2551.999,583.67)" style="font-family:'Open Sans';font-weight:700;font-size:77px;font-style:normal;fill:#62a477;stroke:none;">C</text></g><defs><clipPath id="_clipPath_ZgH01PnvgDZCb2QQGOmGzo8wq5mT12IY"><rect x="0" y="0" width="80.627" height="105.919" transform="matrix(1.488,0,0,1.488,2530,461.179)"/></clipPath></defs></g></g></svg>