<?xml version="1.0" encoding="UTF-8" standalone="no"?><!-- Generator: Gravit.io --><svg xmlns="http://www.w3.org/2000/svg" xmlns:xlink="http://www.w3.org/1999/xlink" style="isolation:isolate" viewBox="0 0 200 100" width="200pt" height="100pt"><defs><clipPath id="_clipPath_v20wyZ8kWMDq00KQilNeAlfVESrRlDLl"><rect width="200" height="100"/></clipPath></defs><g clip-path="url(#_clipPath_v20wyZ8kWMDq00KQilNeAlfVESrRlDLl)"><path d=" M 180.085 70.53 C 181.535 67.357 182.531 63.917 182.979 60.282 C 183.14 58.972 182.374 57.991 181.064 57.83 L 91.543 46.795 C 90.233 46.633 89.252 47.399 89.091 48.709 L 88.553 53.075 L 53.618 48.769 C 52.308 48.608 51.327 49.373 51.165 50.683 C 49.227 66.404 60.33 80.629 76.051 82.567 L 86.968 83.913 L 90.496 84.347 C 92.499 86.851 93.937 89.484 94.787 92.413 C 94.913 92.768 95.08 93.062 95.286 93.297 C 96.111 96.374 96.339 99.601 95.95 102.752 C 95.129 109.414 91.577 115.334 86.406 119.309 L 78.295 118.309 C 74.583 117.852 71.394 120.34 70.937 124.052 C 70.479 127.764 72.968 130.952 76.68 131.41 L 137.816 138.946 C 141.528 139.403 144.716 136.915 145.174 133.203 C 145.631 129.491 143.143 126.303 139.431 125.845 L 131.512 124.869 C 127.291 119.718 125.504 112.948 126.3 106.494 C 127.095 100.04 130.473 93.906 135.629 89.911 L 143.737 90.91 C 157.786 92.642 171.003 85.737 178.019 74.389 C 178.16 74.251 178.294 74.092 178.417 73.906 C 179.019 72.814 179.576 71.686 180.085 70.53 Z  M 93.189 51.43 L 178.343 61.927 C 177.747 64.957 176.743 67.715 175.301 70.419 L 92.112 60.164 L 92.65 55.797 L 93.189 51.43 L 93.189 51.43 Z  M 96.357 85.07 L 129.981 89.215 C 128.793 90.468 127.713 91.82 126.75 93.25 L 98.657 89.787 C 97.972 88.151 97.287 86.515 96.357 85.07 Z  M 55.481 53.432 L 88.014 57.442 L 87.476 61.809 L 85.323 79.277 L 76.808 78.227 C 64.143 76.666 55.066 65.794 55.481 53.432 Z  M 140.807 132.665 C 140.645 133.975 139.664 134.741 138.354 134.579 L 77.218 127.043 C 75.908 126.882 75.142 125.901 75.304 124.591 C 75.465 123.28 76.446 122.515 77.756 122.676 L 86.49 123.753 L 130.159 129.136 L 138.892 130.212 C 140.203 130.374 140.968 131.355 140.807 132.665 Z  M 125.675 124.15 L 92.05 120.005 C 96.6 115.467 99.318 109.596 100.099 103.264 C 100.468 100.273 100.386 97.277 99.854 94.368 L 124.408 97.394 C 123.157 100.084 122.302 102.964 121.933 105.956 C 121.153 112.288 122.583 118.67 125.675 124.15 Z  M 144.276 86.544 L 135.324 85.44 L 91.655 80.057 L 89.69 79.815 L 91.574 64.531 L 172.731 74.535 C 166.302 83.041 155.61 87.941 144.276 86.544 Z " fill="rgb(255,255,255)"/><path d=" M 67.612 14.448 L 44.741 1.878 C 44.319 1.647 43.85 1.517 43.369 1.498 L 31.949 1.054 C 30.778 1.009 29.68 1.629 29.114 2.657 L 21.729 16.095 C 21.164 17.123 21.228 18.382 21.895 19.347 L 28.392 28.75 C 28.666 29.146 29.027 29.472 29.449 29.704 L 33.452 31.904 L 1.677 89.723 C 1.281 90.443 1.188 91.29 1.417 92.079 C 1.646 92.868 2.18 93.534 2.899 93.929 L 11.858 98.852 C 12.608 99.264 13.453 99.333 14.214 99.112 C 14.976 98.891 15.652 98.379 16.064 97.63 L 47.84 39.812 L 52.319 42.273 C 54.705 43.585 57.466 43.886 60.093 43.122 C 62.72 42.359 64.89 40.624 66.201 38.238 L 71.647 28.33 C 74.361 23.391 72.551 17.163 67.612 14.448 Z  M 12.127 91.931 L 8.598 89.992 L 38.882 34.888 L 42.411 36.828 L 12.127 91.931 Z  M 33.074 24.627 L 28.08 17.401 L 33.621 7.319 L 42.398 7.66 L 64.628 19.878 C 66.574 20.947 67.287 23.401 66.217 25.347 L 60.772 35.255 C 60.258 36.191 59.402 36.872 58.364 37.174 C 57.326 37.476 56.239 37.359 55.303 36.845 L 33.074 24.627 Z " fill="rgb(255,255,255)"/><path d=" M 97.35 40.39 C 97.48 41.04 97.34 41.71 96.97 42.26 C 96.61 42.82 96.03 43.2 95.38 43.32 C 94.73 43.45 94.06 43.32 93.51 42.95 C 92.96 42.58 92.57 42 92.45 41.35 L 83.42 -4.6 L 118.58 22.66 L 131.26 -26.31 L 147.23 17.91 L 192.14 -24.1 L 171.28 29.42 L 228.97 22.83 L 168.54 52.39 C 167.95 52.68 167.26 52.72 166.63 52.51 C 166.01 52.29 165.49 51.84 165.2 51.24 C 164.91 50.65 164.86 49.96 165.08 49.33 C 165.29 48.71 165.75 48.19 166.34 47.9 L 200.71 31.09 L 163.61 35.32 L 179.5 -5.43 L 145.1 26.74 L 132.05 -9.4 L 121.52 31.26 L 90.9 7.52 L 97.35 40.39 Z " fill="rgb(255,255,255)"/></g></svg>