<?xml version="1.0" encoding="UTF-8" standalone="no"?><!-- Generator: Gravit.io --><svg xmlns="http://www.w3.org/2000/svg" xmlns:xlink="http://www.w3.org/1999/xlink" style="isolation:isolate" viewBox="0 0 200 200" width="200pt" height="200pt"><defs><clipPath id="_clipPath_sykg4Gbk5qgjVAg4X8KIwfpjywnbTiu7"><rect width="200" height="200"/></clipPath></defs><g clip-path="url(#_clipPath_sykg4Gbk5qgjVAg4X8KIwfpjywnbTiu7)"><path d=" M 45.084 138.787 C 45.352 138.958 45.64 139.083 45.931 139.156 C 47.094 139.448 48.363 138.983 49.044 137.919 C 51.92 133.431 53.484 130.322 53.551 130.194 C 54.258 128.779 53.685 127.057 52.271 126.347 C 50.867 125.652 49.134 126.21 48.422 127.624 C 48.411 127.654 46.917 130.615 44.216 134.828 C 43.361 136.162 43.75 137.932 45.084 138.787 L 45.084 138.787 L 45.084 138.787 L 45.084 138.787 L 45.084 138.787 L 45.084 138.787 L 45.084 138.787 L 45.084 138.787 L 45.084 138.787 L 45.084 138.787 Z  M 35.937 146.087 C 34.09 148.28 32.183 150.331 30.268 152.188 C 29.135 153.289 29.105 155.105 30.209 156.239 C 30.594 156.637 31.066 156.898 31.564 157.023 C 32.495 157.257 33.521 157.018 34.262 156.302 C 36.307 154.313 38.347 152.121 40.319 149.787 C 41.338 148.578 41.186 146.769 39.977 145.747 C 38.766 144.731 36.959 144.88 35.937 146.087 L 35.937 146.087 L 35.937 146.087 L 35.937 146.087 L 35.937 146.087 L 35.937 146.087 L 35.937 146.087 L 35.937 146.087 L 35.937 146.087 L 35.937 146.087 Z  M 55.414 197.126 C 55.82 197.804 56.464 198.255 57.175 198.434 C 57.887 198.612 58.667 198.519 59.345 198.113 C 60.705 197.298 61.147 195.541 60.332 194.182 L 52.004 180.269 C 51.189 178.91 49.432 178.469 48.073 179.283 L 36.62 186.139 L 33.927 181.642 C 33.113 180.282 31.356 179.841 29.996 180.655 L 16.085 188.984 C 14.725 189.799 14.284 191.556 15.098 192.915 C 15.912 194.275 17.669 194.717 19.029 193.902 L 30.482 187.046 L 37.338 198.498 C 37.744 199.177 38.388 199.628 39.099 199.806 C 39.811 199.985 40.591 199.891 41.269 199.485 C 42.629 198.671 43.07 196.914 42.256 195.554 L 39.564 191.057 L 48.558 185.672 L 55.414 197.126 L 55.414 197.126 L 55.414 197.126 L 55.414 197.126 L 55.414 197.126 L 55.414 197.126 L 55.414 197.126 L 55.414 197.126 L 55.414 197.126 Z  M -11.14 208.411 L -40.785 209.072 C -42.776 209.072 -44.26 208.436 -45.286 207.121 C -46.735 205.262 -47.176 202.086 -46.408 199.028 L -27.156 122.337 L -21.219 118.78 C -20.568 118.39 -20.097 117.758 -19.912 117.021 C -19.726 116.282 -19.844 115.502 -20.233 114.851 L -23.787 108.915 L -20.226 94.731 C -18.618 88.323 -10.909 87.362 -8.666 87.221 L 32.119 85.905 L 46.507 95.637 C 47.828 96.53 49.6 96.18 50.489 94.866 C 51.376 93.555 51.028 91.775 49.72 90.888 L 34.562 80.634 C 34.061 80.299 33.47 80.124 32.864 80.146 L -8.931 81.499 C -17.629 82.028 -24.087 86.566 -25.787 93.335 L -29.636 108.67 C -29.821 109.407 -29.707 110.186 -29.315 110.84 L -26.623 115.337 L -31.12 118.029 C -31.773 118.418 -32.243 119.054 -32.428 119.791 L -51.968 197.633 C -53.168 202.412 -52.34 207.398 -49.804 210.648 C -48.692 212.07 -46.861 213.697 -43.975 214.422 C -43.01 214.664 -41.931 214.805 -40.72 214.805 L -11.013 214.144 C -9.429 214.107 -8.177 212.796 -8.211 211.212 C -8.246 209.631 -9.576 208.372 -11.14 208.411 L -11.14 208.411 L -11.14 208.411 L -11.14 208.411 L -11.14 208.411 L -11.14 208.411 L -11.14 208.411 L -11.14 208.411 Z  M 53.08 120.568 C 54.617 120.954 56.173 120.021 56.558 118.486 L 65.63 82.345 L 91.713 88.893 L 86.384 95.1 C 85.796 95.783 85.565 96.703 85.76 97.585 L 87.526 105.574 L 69.783 101.12 C 68.246 100.734 66.69 101.667 66.305 103.202 C 65.92 104.736 66.85 106.294 68.387 106.68 L 90.628 112.263 C 91.593 112.505 92.611 112.228 93.325 111.539 C 94.037 110.846 94.341 109.834 94.123 108.864 L 91.665 97.747 L 99.082 89.108 C 99.732 88.355 99.942 87.32 99.642 86.373 C 99.338 85.428 98.572 84.704 97.607 84.462 L 64.246 76.087 C 62.709 75.701 61.153 76.635 60.768 78.169 L 50.998 117.09 C 50.612 118.625 51.543 120.182 53.08 120.568 L 53.08 120.568 L 53.08 120.568 L 53.08 120.568 L 53.08 120.568 L 53.08 120.568 L 53.08 120.568 Z  M 76.26 208.269 C 77.074 209.629 78.831 210.07 80.19 209.256 L 84.688 206.563 L 87.38 211.06 C 87.786 211.739 88.43 212.19 89.141 212.368 C 89.853 212.547 90.633 212.453 91.311 212.047 C 92.671 211.233 93.112 209.476 92.298 208.116 L 88.133 201.16 C 87.319 199.8 85.562 199.359 84.202 200.174 L 77.246 204.338 C 75.886 205.152 75.445 206.909 76.26 208.269 L 76.26 208.269 L 76.26 208.269 L 76.26 208.269 L 76.26 208.269 L 76.26 208.269 Z  M 98.137 168.208 L 91.181 172.373 C 89.821 173.187 89.38 174.944 90.194 176.304 C 91.008 177.664 92.766 178.105 94.125 177.29 L 98.623 174.598 L 101.315 179.095 C 101.721 179.773 102.364 180.224 103.076 180.403 C 103.788 180.582 104.568 180.488 105.246 180.082 C 106.606 179.268 107.047 177.511 106.233 176.151 L 102.068 169.195 C 101.254 167.835 99.497 167.394 98.137 168.208 L 98.137 168.208 L 98.137 168.208 L 98.137 168.208 L 98.137 168.208 Z  M 108.037 168.962 L 112.534 166.269 L 115.227 170.766 C 115.633 171.445 116.276 171.896 116.988 172.074 C 117.7 172.253 118.479 172.159 119.158 171.753 C 120.517 170.939 120.958 169.182 120.144 167.822 L 115.98 160.866 C 115.166 159.506 113.409 159.065 112.049 159.879 L 105.093 164.044 C 103.733 164.858 103.292 166.615 104.106 167.975 C 104.92 169.335 106.677 169.776 108.037 168.962 L 108.037 168.962 L 108.037 168.962 L 108.037 168.962 Z  M -0.576 165.809 C -3.075 165.595 -5.603 165.091 -8.146 164.121 C -9.637 163.564 -11.282 164.3 -11.846 165.778 C -12.409 167.257 -11.667 168.915 -10.188 169.478 C -9.045 169.916 -7.889 170.279 -6.755 170.564 C -4.864 171.039 -2.95 171.36 -1.055 171.519 C 0.522 171.655 1.909 170.484 2.042 168.907 C 2.175 167.33 1.035 165.938 -0.576 165.809 L -0.576 165.809 L -0.576 165.809 Z  M -25.227 151.263 C -26.278 150.08 -28.09 149.977 -29.271 151.031 C -30.454 152.084 -30.557 153.897 -29.503 155.077 C -27.423 157.408 -25.282 159.536 -23.137 161.398 C -22.788 161.701 -22.382 161.907 -21.959 162.013 C -20.944 162.268 -19.826 161.957 -19.096 161.112 C -18.055 159.917 -18.186 158.108 -19.379 157.069 C -21.342 155.365 -23.307 153.412 -25.227 151.263 L -25.227 151.263 Z  M 120.42 217.262 L 141.356 133.862 C 142.628 128.794 141.998 124.103 139.621 120.985 C 138.194 119.111 135.396 116.848 130.09 116.734 L 88.465 117.737 C 87.177 117.768 86.068 118.654 85.754 119.905 L 56.443 236.669 C 56.058 238.203 56.988 239.76 58.525 240.146 C 60.063 240.532 61.618 239.599 62.003 238.064 L 90.783 123.416 L 130.097 122.465 C 132.422 122.514 134.094 123.188 135.063 124.463 C 136.355 126.155 136.628 129.15 135.796 132.466 L 115.149 214.715 L 109.212 218.272 C 107.853 219.084 107.411 220.844 108.225 222.201 L 111.779 228.14 L 109.276 238.11 C 108.576 240.901 106.685 243.816 98.053 244.274 L 57.268 245.59 L 18.161 219.138 L 18.084 212.496 C 18.076 211.611 17.656 210.778 16.948 210.243 C 16.242 209.711 15.324 209.531 14.468 209.762 L 7.053 211.775 L 4.11 209.689 L 14.208 169.464 L 14.212 169.461 C 16.966 168.486 19.745 167.162 22.473 165.524 C 23.829 164.712 24.271 162.952 23.457 161.592 C 22.641 160.238 20.879 159.793 19.522 160.608 C 18.336 161.321 17.14 161.963 15.948 162.533 L 32.944 94.827 C 33.329 93.292 32.399 91.735 30.862 91.349 C 29.324 90.963 27.769 91.897 27.384 93.431 L -1.927 210.195 C -2.215 211.343 -1.77 212.548 -0.804 213.231 L 4.841 217.234 C 5.541 217.729 6.42 217.887 7.249 217.661 L 12.392 216.266 L 12.446 220.703 C 12.455 221.642 12.924 222.517 13.704 223.046 L 54.825 250.861 C 55.106 251.05 55.412 251.186 55.734 251.267 C 55.993 251.332 56.257 251.36 56.523 251.349 L 98.294 249.999 C 101.781 249.817 112.388 249.258 114.837 239.506 L 117.628 228.385 C 117.813 227.649 117.696 226.866 117.307 226.215 L 114.615 221.718 L 119.112 219.026 C 119.763 218.634 120.235 218.002 120.42 217.262 Z " fill-rule="evenodd" fill="rgb(255,255,255)"/><path d=" M 87.818 -51.334 C 77.185 -45.239 71.375 -35.894 74.606 -30.216 C 74.874 -29.752 75.318 -29.419 75.682 -29.034 C 75.682 -29.034 137.891 35.409 154.875 97.254 C 154.875 97.254 155.377 98.453 155.699 99.009 C 156.731 100.818 158.517 102.104 160.853 102.738 C 165.871 104.106 173.438 102.395 180.594 98.295 C 189.296 93.305 194.999 86.195 194.783 80.6 C 194.735 79.359 194.409 78.204 193.813 77.165 C 193.525 76.664 193.116 76.267 192.713 75.858 C 192.713 75.858 170.835 53.174 149.49 21.818 C 144.96 14.95 143.72 13.259 140.442 7.864 C 129.181 -10.352 119.012 -30.535 113.538 -50.462 C 113.538 -50.462 113.027 -51.554 112.726 -52.073 C 109.385 -57.865 98.672 -57.551 87.818 -51.334 Z  M 188.491 80.225 C 189.501 81.973 186.181 88.023 177.54 92.973 C 171.044 96.697 165.282 97.589 162.454 96.817 C 161.949 96.681 161.277 96.419 161.022 95.961 C 160.921 95.796 160.876 95.591 160.866 95.342 C 160.776 93.003 164.156 87.694 171.96 83.226 C 180.472 78.343 187.506 78.514 188.491 80.225 Z  M 168.905 77.897 C 164.279 80.55 160.64 83.832 158.182 87.157 C 151.852 68.188 141.508 48.968 130.391 31.595 C 133.409 28.218 137.599 24.789 143.081 23.278 C 158.294 45.801 173.982 63.971 182.423 73.22 C 178.336 73.653 173.654 75.177 168.905 77.897 Z  M 107.404 -49 C 107.545 -48.743 107.757 -47.946 107.887 -47.976 C 113.77 -27.015 124.381 -6.219 136 12.364 C 130.853 14.45 126.592 17.507 123.227 20.791 C 101.68 -10.632 79.78 -33.727 79.774 -33.877 C 79.683 -36.216 83.063 -41.531 90.867 -45.999 C 99.385 -50.889 106.419 -50.717 107.404 -49 Z " fill="rgb(255,255,255)"/><path d=" M 117.651 -76.19 C 108.969 -71.212 104.224 -63.582 106.862 -58.945 C 107.081 -58.566 107.443 -58.295 107.741 -57.98 C 107.741 -57.98 158.539 -5.357 172.408 45.143 C 172.408 45.143 172.818 46.122 173.08 46.576 C 173.923 48.053 175.382 49.104 177.289 49.622 C 181.387 50.738 187.566 49.341 193.409 45.994 C 200.515 41.919 205.172 36.113 204.995 31.544 C 204.956 30.531 204.69 29.587 204.203 28.739 C 203.968 28.33 203.634 28.006 203.305 27.672 C 203.305 27.672 185.44 9.149 168.01 -16.456 C 164.312 -22.064 163.299 -23.445 160.622 -27.85 C 151.427 -42.725 143.123 -59.205 138.653 -75.477 C 138.653 -75.477 138.236 -76.369 137.99 -76.793 C 135.262 -81.523 126.514 -81.266 117.651 -76.19 Z  M 199.857 31.238 C 200.683 32.665 197.971 37.605 190.915 41.647 C 185.611 44.689 180.906 45.416 178.596 44.787 C 178.184 44.675 177.635 44.462 177.427 44.087 C 177.345 43.953 177.308 43.786 177.3 43.582 C 177.226 41.672 179.986 37.337 186.359 33.688 C 193.31 29.701 199.053 29.841 199.857 31.238 Z  M 183.864 29.337 C 180.087 31.503 177.115 34.183 175.108 36.898 C 169.939 21.408 161.492 5.714 152.415 -8.472 C 154.879 -11.23 158.301 -14.03 162.777 -15.264 C 175.2 3.128 188.01 17.965 194.902 25.518 C 191.565 25.872 187.742 27.116 183.864 29.337 Z  M 133.644 -74.284 C 133.759 -74.074 133.932 -73.423 134.039 -73.447 C 138.842 -56.331 147.507 -39.35 156.995 -24.175 C 152.792 -22.472 149.313 -19.976 146.565 -17.294 C 128.97 -42.953 111.087 -61.812 111.082 -61.934 C 111.008 -63.844 113.768 -68.185 120.141 -71.833 C 127.096 -75.826 132.84 -75.686 133.644 -74.284 Z " fill="rgb(255,255,255)"/></g></svg>