<?xml version="1.0" encoding="UTF-8" standalone="no"?><!-- Generator: Gravit.io --><svg xmlns="http://www.w3.org/2000/svg" xmlns:xlink="http://www.w3.org/1999/xlink" style="isolation:isolate" viewBox="0 0 100 200" width="100" height="200"><defs><clipPath id="_clipPath_zkQ4lU2u3ZlAaf8S9bcF06cN5JhCh5PO"><rect width="100" height="200"/></clipPath></defs><g clip-path="url(#_clipPath_zkQ4lU2u3ZlAaf8S9bcF06cN5JhCh5PO)"><mask id="_mask_MshyqgBBZVd3jrT5KGX6x8Ads71C2AC4" x="-200" y="-200" width="400" height="400"><rect x="-200" y="-200" width="400" height="400" style="fill:white;"/><path d=" M 57.157 41.474 C 65.622 30.128 82.272 28.212 94.317 37.198 C 106.362 46.184 109.269 62.691 100.804 74.036 C 92.34 85.382 75.689 87.298 63.645 78.312 C 51.6 69.326 48.693 52.819 57.157 41.474 Z  M -8.861 16.613 C 1.125 3.228 20.77 0.968 34.98 11.569 C 49.19 22.17 52.619 41.645 42.633 55.03 C 32.647 68.415 13.003 70.675 -1.207 60.074 C -15.417 49.472 -18.847 29.998 -8.861 16.613 Z " fill-rule="evenodd" fill="black" stroke="none"/></mask><g style="isolation:isolate" mask="url(#_mask_MshyqgBBZVd3jrT5KGX6x8Ads71C2AC4)"><path d=" M 46.398 65.729 C 46.398 65.729 46.398 65.729 46.398 65.729 C 46.398 65.729 46.398 65.729 46.398 65.729 L 46.398 65.729 Z  M 84.616 96.038 C 84.608 96.047 84.599 96.047 84.59 96.056 L 84.643 96.02 L 84.616 96.038 L 84.616 96.038 Z  M 71.166 98.517 C 71.157 98.508 71.148 98.508 71.13 98.508 L 71.192 98.517 L 71.166 98.517 L 71.166 98.517 Z  M 76.994 93.515 L 76.407 94.688 C 75.652 94.794 74.888 94.865 74.124 94.892 L 74.799 93.542 L 75.323 93.551 L 75.403 93.551 L 75.759 93.551 L 75.821 93.551 L 76.994 93.515 L 76.994 93.515 Z  M 52.651 85.67 L 53.406 84.151 L 53.441 84.187 L 53.548 84.293 L 53.717 84.471 L 54.179 84.906 L 53.397 86.479 C 53.139 86.212 52.891 85.946 52.651 85.67 L 52.651 85.67 Z  M 61.038 92.076 L 60.984 92.049 C 60.451 91.783 59.927 91.489 59.412 91.187 L 61.002 89.855 C 61.286 90.006 61.571 90.157 61.864 90.299 C 61.873 90.308 61.873 90.308 61.882 90.308 L 61.908 90.326 L 61.038 92.076 L 61.038 92.076 Z  M 65.266 91.747 L 65.631 91.88 L 65.666 91.889 L 65.711 91.907 C 65.711 91.907 65.72 91.916 65.728 91.916 C 65.897 91.969 66.075 92.031 66.244 92.085 L 65.4 93.782 C 65.071 93.684 64.742 93.577 64.414 93.462 L 65.266 91.747 L 65.266 91.747 Z  M 57.04 87.332 C 57.315 87.545 57.599 87.749 57.875 87.945 L 57.031 89.641 C 56.755 89.446 56.471 89.233 56.196 89.02 L 57.04 87.332 L 57.04 87.332 Z  M 69.851 93.009 C 70.197 93.08 70.553 93.133 70.899 93.195 L 70.126 94.75 C 69.771 94.714 69.415 94.661 69.06 94.608 L 69.851 93.009 L 69.851 93.009 Z  M 50.838 81.13 L 50.208 82.41 C 49.79 81.734 49.399 81.05 49.044 80.34 L 49.577 79.282 C 49.657 79.425 49.746 79.558 49.834 79.691 C 49.843 79.7 49.843 79.7 49.843 79.709 L 50.012 79.958 L 50.119 80.109 L 50.838 81.13 L 50.838 81.13 Z  M 47 73.978 L 47.107 74.281 L 47.125 74.343 L 47.382 75.018 L 47.498 75.276 L 47.302 75.666 C 47.169 75.133 47.054 74.591 46.965 74.05 L 47 73.978 L 47 73.978 Z  M 81.338 92.955 L 81.427 92.938 C 81.427 92.938 81.436 92.938 81.436 92.938 C 81.836 92.849 82.235 92.751 82.635 92.653 L 82.449 93.035 C 81.978 93.24 81.507 93.417 81.027 93.595 L 81.338 92.955 L 81.338 92.955 Z  M 87.637 90.77 L 87.77 90.503 L 87.379 90.903 L 87.637 90.77 L 87.637 90.77 L 87.637 90.77 Z  M 93.59 80.828 L 93.385 81.113 L 93.35 81.175 L 93.314 81.228 L 92.754 81.992 L 92.719 82.037 L 92.141 82.756 L 92.097 82.809 L 92.07 82.845 L 91.493 83.476 L 91.404 83.574 L 91.324 83.653 L 90.818 84.16 L 90.462 84.48 L 90.382 84.551 L 90.285 84.649 L 90.089 84.817 C 88.135 86.488 85.878 87.767 83.444 88.602 C 80.903 89.482 78.22 89.926 75.528 89.917 L 75.057 89.917 L 74.977 89.908 L 74.915 89.908 L 73.964 89.872 L 73.724 89.855 L 73.6 89.837 L 72.871 89.775 L 72.507 89.739 L 72.409 89.721 L 71.77 89.641 L 71.29 89.562 L 71.254 89.562 L 70.659 89.455 L 70.117 89.348 L 69.549 89.215 L 68.998 89.091 L 68.429 88.931 L 67.878 88.78 L 67.301 88.593 L 67.212 88.566 L 66.777 88.415 L 66.235 88.22 L 66.155 88.193 L 66.03 88.149 L 65.675 88.016 L 64.964 87.714 L 64.804 87.651 L 64.573 87.554 L 63.49 87.038 L 62.423 86.479 L 62.201 86.354 L 62.05 86.265 L 62.05 86.265 L 61.393 85.883 L 61.073 85.679 L 60.958 85.608 L 60.398 85.253 L 60.025 84.995 L 59.945 84.942 L 59.447 84.586 L 58.994 84.249 L 58.523 83.884 L 58.088 83.529 L 57.644 83.147 L 57.226 82.783 L 56.791 82.374 L 56.409 82.01 L 55.956 81.548 L 55.902 81.495 L 55.636 81.219 L 55.147 80.668 L 55.058 80.58 L 54.898 80.393 L 54.294 79.664 L 54.25 79.611 L 54.205 79.549 C 52.606 77.532 51.345 75.276 50.456 72.859 C 49.603 70.558 49.159 68.115 49.15 65.663 C 49.15 65.272 49.168 64.89 49.186 64.499 L 49.213 64.241 L 49.221 64.099 L 49.23 63.993 L 49.275 63.522 L 49.372 62.802 L 49.39 62.695 L 49.408 62.562 L 49.568 61.736 L 49.586 61.665 L 49.595 61.612 L 49.817 60.723 L 49.826 60.67 L 50.101 59.764 L 50.145 59.63 L 50.261 59.302 C 50.492 58.644 50.767 58.005 51.078 57.374 C 51.931 55.668 53.033 54.104 54.365 52.736 C 55.68 51.386 57.191 50.24 58.843 49.316 C 60.531 48.374 62.335 47.663 64.209 47.201 C 66.164 46.713 68.163 46.464 70.179 46.473 C 74.355 46.49 78.477 47.468 82.218 49.351 C 86.491 51.439 90.125 54.628 92.763 58.591 C 93.972 60.421 94.922 62.411 95.58 64.499 C 96.219 66.516 96.539 68.612 96.548 70.727 C 96.557 73.596 95.899 76.431 94.62 79.016 C 94.309 79.638 93.972 80.242 93.59 80.828 L 93.59 80.828 Z  M 84.616 96.038 L 84.608 96.047 L 84.403 96.145 C 82.395 97.06 80.272 97.726 78.104 98.117 L 77.971 98.144 L 77.909 98.153 C 76.292 98.428 74.657 98.57 73.014 98.57 C 72.401 98.57 71.779 98.552 71.166 98.517 L 71.157 98.517 L 70.988 98.499 L 70.988 98.499 C 66.946 98.215 63.001 97.131 59.376 95.319 C 57.04 94.155 54.854 92.715 52.882 91.01 C 52.766 90.93 52.66 90.841 52.562 90.734 C 51.318 89.641 50.181 88.442 49.133 87.163 L 49.044 87.047 C 49.035 87.047 49.035 87.038 49.035 87.038 C 47.587 85.235 46.352 83.263 45.383 81.157 L 45.366 81.113 L 45.303 80.97 C 43.82 77.737 43.047 74.218 43.02 70.665 C 43.011 67.235 43.802 63.85 45.321 60.768 C 45.739 59.941 46.21 59.133 46.734 58.36 C 47.036 57.471 47.4 56.601 47.818 55.757 C 48.822 53.722 50.145 51.865 51.718 50.231 C 53.282 48.632 55.058 47.263 57.004 46.171 C 58.976 45.069 61.091 44.234 63.285 43.683 C 65.542 43.114 67.861 42.821 70.197 42.83 C 74.933 42.848 79.597 43.958 83.835 46.082 C 88.703 48.472 92.852 52.114 95.837 56.645 C 97.223 58.76 98.316 61.061 99.071 63.468 C 99.809 65.823 100.182 68.266 100.191 70.727 C 100.199 74.165 99.409 77.55 97.89 80.633 C 97.463 81.477 96.992 82.285 96.468 83.067 C 96.166 83.947 95.811 84.808 95.393 85.644 C 94.247 87.945 92.71 90.032 90.844 91.8 C 89.014 93.542 86.909 94.972 84.616 96.038 L 84.616 96.038 Z " fill-rule="evenodd" fill="rgb(255,255,255)"/><path d=" M -21.555 45.229 C -21.555 45.229 -21.555 45.229 -21.555 45.229 C -21.555 45.229 -21.555 45.229 -21.555 45.229 L -21.555 45.229 Z  M 23.535 80.987 C 23.524 80.998 23.514 80.998 23.504 81.008 L 23.566 80.966 L 23.535 80.987 L 23.535 80.987 Z  M 7.666 83.912 C 7.655 83.901 7.645 83.901 7.624 83.901 L 7.697 83.912 L 7.666 83.912 L 7.666 83.912 Z  M 14.542 78.01 L 13.85 79.394 C 12.959 79.52 12.058 79.604 11.156 79.635 L 11.953 78.042 L 12.571 78.052 L 12.666 78.052 L 13.085 78.052 L 13.158 78.052 L 14.542 78.01 L 14.542 78.01 Z  M -14.178 68.755 L -13.287 66.963 L -13.245 67.005 L -13.119 67.131 L -12.92 67.34 L -12.375 67.854 L -13.297 69.709 C -13.601 69.395 -13.895 69.08 -14.178 68.755 L -14.178 68.755 Z  M -4.283 76.312 L -4.346 76.281 C -4.975 75.967 -5.593 75.621 -6.201 75.264 L -4.325 73.692 C -3.99 73.87 -3.654 74.048 -3.308 74.216 C -3.298 74.227 -3.298 74.227 -3.287 74.227 L -3.256 74.248 L -4.283 76.312 L -4.283 76.312 Z  M 0.706 75.925 L 1.136 76.082 L 1.178 76.092 L 1.23 76.113 C 1.23 76.113 1.241 76.124 1.251 76.124 C 1.45 76.187 1.66 76.26 1.859 76.323 L 0.863 78.325 C 0.476 78.21 0.088 78.084 -0.3 77.948 L 0.706 75.925 L 0.706 75.925 Z  M -9 70.715 C -8.675 70.967 -8.339 71.208 -8.014 71.439 L -9.01 73.44 C -9.335 73.21 -9.671 72.958 -9.995 72.707 L -9 70.715 L -9 70.715 Z  M 6.115 77.413 C 6.523 77.497 6.943 77.56 7.351 77.633 L 6.44 79.467 C 6.02 79.425 5.601 79.363 5.182 79.3 L 6.115 77.413 L 6.115 77.413 Z  M -16.316 63.399 L -17.06 64.909 C -17.553 64.112 -18.014 63.305 -18.433 62.466 L -17.804 61.219 C -17.71 61.387 -17.605 61.544 -17.5 61.701 C -17.49 61.712 -17.49 61.712 -17.49 61.722 L -17.291 62.016 L -17.165 62.194 L -16.316 63.399 L -16.316 63.399 Z  M -20.844 54.962 L -20.718 55.318 L -20.697 55.391 L -20.393 56.188 L -20.257 56.492 L -20.487 56.953 C -20.645 56.324 -20.781 55.685 -20.886 55.045 L -20.844 54.962 L -20.844 54.962 Z  M 19.667 77.35 L 19.772 77.329 C 19.772 77.329 19.783 77.329 19.783 77.329 C 20.254 77.224 20.726 77.109 21.198 76.994 L 20.977 77.444 C 20.422 77.686 19.866 77.895 19.3 78.105 L 19.667 77.35 L 19.667 77.35 Z  M 27.099 74.772 L 27.256 74.457 L 26.795 74.929 L 27.099 74.772 L 27.099 74.772 L 27.099 74.772 Z  M 34.121 63.043 L 33.88 63.378 L 33.838 63.452 L 33.796 63.514 L 33.136 64.416 L 33.094 64.468 L 32.413 65.317 L 32.36 65.38 L 32.329 65.422 L 31.648 66.166 L 31.543 66.282 L 31.449 66.376 L 30.851 66.973 L 30.432 67.351 L 30.337 67.435 L 30.222 67.55 L 29.992 67.749 C 27.686 69.72 25.023 71.229 22.151 72.214 C 19.154 73.252 15.988 73.776 12.812 73.765 L 12.257 73.765 L 12.162 73.755 L 12.089 73.755 L 10.968 73.713 L 10.685 73.692 L 10.538 73.671 L 9.678 73.598 L 9.249 73.556 L 9.133 73.535 L 8.379 73.44 L 7.813 73.346 L 7.771 73.346 L 7.068 73.22 L 6.429 73.095 L 5.758 72.937 L 5.108 72.791 L 4.438 72.602 L 3.788 72.424 L 3.106 72.204 L 3.002 72.172 L 2.488 71.994 L 1.849 71.763 L 1.754 71.732 L 1.608 71.68 L 1.188 71.522 L 0.35 71.166 L 0.161 71.093 L -0.111 70.977 L -1.39 70.369 L -2.648 69.709 L -2.91 69.562 L -3.088 69.458 L -3.088 69.458 L -3.864 69.007 L -4.241 68.766 L -4.377 68.682 L -5.038 68.263 L -5.478 67.959 L -5.572 67.896 L -6.159 67.477 L -6.694 67.078 L -7.249 66.648 L -7.763 66.229 L -8.287 65.779 L -8.78 65.349 L -9.293 64.867 L -9.744 64.437 L -10.278 63.892 L -10.341 63.829 L -10.656 63.504 L -11.232 62.854 L -11.337 62.749 L -11.526 62.529 L -12.239 61.67 L -12.291 61.607 L -12.343 61.533 C -14.23 59.154 -15.718 56.492 -16.767 53.641 C -17.773 50.926 -18.297 48.044 -18.307 45.151 C -18.307 44.69 -18.286 44.239 -18.265 43.778 L -18.234 43.474 L -18.223 43.306 L -18.213 43.18 L -18.161 42.625 L -18.045 41.776 L -18.024 41.65 L -18.003 41.493 L -17.815 40.518 L -17.794 40.434 L -17.783 40.371 L -17.521 39.323 L -17.511 39.26 L -17.186 38.191 L -17.133 38.034 L -16.997 37.646 C -16.725 36.87 -16.4 36.116 -16.033 35.372 C -15.027 33.359 -13.727 31.514 -12.155 29.9 C -10.603 28.307 -8.822 26.955 -6.872 25.865 C -4.88 24.754 -2.753 23.915 -0.541 23.37 C 1.765 22.794 4.123 22.5 6.502 22.511 C 11.429 22.532 16.292 23.685 20.705 25.907 C 25.747 28.37 30.034 32.133 33.147 36.808 C 34.572 38.967 35.694 41.315 36.469 43.778 C 37.224 46.157 37.601 48.631 37.612 51.125 C 37.622 54.511 36.846 57.854 35.337 60.905 C 34.97 61.638 34.572 62.351 34.121 63.043 L 34.121 63.043 Z  M 23.535 80.987 L 23.524 80.998 L 23.283 81.113 C 20.915 82.193 18.409 82.979 15.852 83.44 L 15.695 83.471 L 15.621 83.482 C 13.714 83.807 11.785 83.974 9.846 83.974 C 9.123 83.974 8.389 83.953 7.666 83.912 L 7.655 83.912 L 7.456 83.891 L 7.456 83.891 C 2.687 83.555 -1.967 82.276 -6.243 80.138 C -9 78.765 -11.578 77.067 -13.905 75.055 C -14.041 74.96 -14.167 74.856 -14.282 74.73 C -15.75 73.44 -17.091 72.025 -18.328 70.516 L -18.433 70.38 C -18.444 70.38 -18.444 70.369 -18.444 70.369 C -20.152 68.242 -21.609 65.915 -22.751 63.431 L -22.772 63.378 L -22.846 63.211 C -24.596 59.395 -25.508 55.245 -25.54 51.052 C -25.55 47.006 -24.617 43.013 -22.825 39.376 C -22.332 38.401 -21.777 37.447 -21.158 36.535 C -20.802 35.487 -20.372 34.46 -19.88 33.464 C -18.695 31.064 -17.133 28.873 -15.278 26.944 C -13.433 25.058 -11.337 23.444 -9.042 22.154 C -6.715 20.855 -4.22 19.869 -1.631 19.22 C 1.031 18.549 3.767 18.203 6.523 18.213 C 12.11 18.234 17.613 19.544 22.613 22.05 C 28.356 24.869 33.251 29.167 36.773 34.512 C 38.408 37.007 39.697 39.721 40.588 42.562 C 41.458 45.34 41.899 48.222 41.909 51.125 C 41.92 55.182 40.987 59.175 39.194 62.812 C 38.691 63.808 38.136 64.762 37.517 65.684 C 37.161 66.722 36.742 67.739 36.249 68.724 C 34.897 71.439 33.084 73.902 30.883 75.988 C 28.723 78.042 26.239 79.729 23.535 80.987 L 23.535 80.987 Z " fill-rule="evenodd" fill="rgb(255,255,255)"/><path d=" M 30.665 129.192 L 27.497 132.91 C 26.664 133.888 26.781 135.356 27.759 136.189 C 28.248 136.606 28.86 136.785 29.453 136.737 C 30.046 136.69 30.622 136.416 31.038 135.927 L 34.206 132.209 C 35.039 131.231 34.922 129.763 33.944 128.93 C 32.966 128.097 31.498 128.214 30.665 129.192 L 30.665 129.192 Z  M 19.955 141.763 L 18.004 144.052 C 17.171 145.03 17.288 146.498 18.266 147.331 C 18.755 147.748 19.367 147.927 19.96 147.879 C 20.553 147.832 21.129 147.558 21.545 147.069 L 23.496 144.78 C 24.328 143.802 24.211 142.334 23.233 141.501 C 22.256 140.668 20.788 140.785 19.955 141.763 L 19.955 141.763 Z  M 21.265 154.572 C 21.264 154.573 21.263 154.575 21.261 154.576 L 20.56 155.398 L 10.287 146.645 L 31.999 121.161 L 42.273 129.914 L 41.442 130.89 C 41.441 130.891 41.44 130.892 41.438 130.893 L 21.265 154.572 L 21.265 154.572 Z  M 88.776 173.738 C 88.774 173.74 88.76 173.756 88.758 173.759 C 87.974 174.679 86.628 174.776 85.694 173.98 C 85.551 173.858 71.062 161.601 71.062 161.601 C 70.784 161.365 70.467 161.208 70.137 161.122 C 69.52 160.963 68.856 161.06 68.311 161.404 C 68.117 161.527 67.939 161.68 67.782 161.863 C 67.314 162.413 67.146 163.118 67.263 163.778 C 67.276 163.852 67.292 163.924 67.312 163.996 C 67.352 164.14 67.406 164.281 67.474 164.416 C 67.609 164.686 67.8 164.934 68.044 165.142 C 68.044 165.142 86.189 180.585 86.292 180.648 C 86.962 181.458 86.977 182.657 86.273 183.484 C 85.496 184.396 84.122 184.506 83.21 183.729 L 63.83 167.304 C 63.646 167.148 63.446 167.025 63.235 166.935 C 62.324 166.545 61.227 166.772 60.55 167.566 C 60.047 168.157 59.893 168.926 60.063 169.626 C 60.175 170.085 60.425 170.515 60.812 170.845 L 77.175 184.786 C 77.747 185.586 77.725 186.707 77.055 187.494 C 76.678 187.936 76.152 188.205 75.574 188.251 C 74.995 188.297 74.434 188.115 73.992 187.739 L 55.987 172.486 C 55.009 171.653 53.541 171.77 52.707 172.748 C 52.655 172.809 52.607 172.872 52.562 172.937 C 51.892 173.907 52.053 175.246 52.969 176.027 L 68.416 189.187 C 68.988 189.987 68.966 191.108 68.295 191.896 C 67.518 192.807 66.144 192.917 65.233 192.14 L 37.089 168.161 C 35.875 167.128 34.901 165.88 34.194 164.452 L 34.036 164.134 C 33.046 162.138 31.685 160.394 29.99 158.949 L 26.314 155.818 L 43.471 135.681 L 45.956 137.798 C 45.946 138.027 45.949 138.259 45.967 138.494 C 45.968 138.514 45.97 138.534 45.972 138.554 C 46.465 143.331 50.717 146.91 55.462 146.531 L 59.799 146.165 L 88.521 170.636 C 89.447 171.425 89.558 172.82 88.776 173.738 L 88.776 173.738 Z  M 97.826 148.461 C 96.379 150.16 95.311 152.099 94.658 154.206 L 94.546 154.562 C 94.125 155.92 93.016 157.831 91.85 159.2 L 87.826 163.933 L 74.52 152.596 C 78.797 152.155 81.144 150.745 81.282 150.66 L 78.84 146.7 L 78.862 146.687 C 78.828 146.707 75.376 148.673 68.995 147.889 L 62.082 141.998 L 62.061 142.009 C 61.597 141.632 61.009 141.489 60.411 141.537 C 60.407 141.537 60.404 141.538 60.401 141.538 L 55.085 141.94 C 52.861 142.118 50.857 140.379 50.604 138.113 C 50.566 137.429 51.098 136.811 51.781 136.756 L 70.426 135.24 C 70.532 135.231 70.636 135.216 70.739 135.193 C 73.753 134.528 76.073 133.201 77.832 131.137 L 80.822 127.627 L 100.959 144.785 L 97.826 148.461 L 97.826 148.461 Z  M 106.564 143.448 L 105.747 142.752 C 105.746 142.751 105.746 142.751 105.746 142.751 L 82.068 122.577 C 82.068 122.577 82.067 122.577 82.067 122.576 L 81.08 121.736 L 88.091 113.507 L 113.574 135.219 L 106.564 143.448 L 106.564 143.448 Z  M 118.362 133.187 L 89.337 108.457 C 88.359 107.624 86.891 107.742 86.058 108.719 L 76.03 120.489 C 75.63 120.958 75.433 121.568 75.482 122.183 C 75.531 122.798 75.823 123.368 76.292 123.768 L 77.28 124.609 L 74.29 128.119 C 73.225 129.369 71.823 130.165 69.885 130.616 L 51.407 132.118 C 50.133 132.22 48.985 132.723 48.073 133.491 L 46.488 132.14 L 47.322 131.161 C 47.722 130.691 47.92 130.082 47.871 129.467 C 47.821 128.852 47.53 128.282 47.06 127.882 L 33.246 116.112 C 32.268 115.279 30.8 115.396 29.967 116.374 L 5.238 145.399 C 4.838 145.868 4.64 146.477 4.69 147.092 C 4.739 147.707 5.03 148.277 5.5 148.677 L 19.314 160.447 C 19.803 160.864 20.415 161.043 21.008 160.996 C 21.601 160.948 22.177 160.674 22.593 160.185 L 23.297 159.359 L 26.973 162.491 C 28.186 163.524 29.16 164.773 29.868 166.2 L 30.025 166.518 C 31.015 168.514 32.376 170.258 34.072 171.703 L 62.216 195.682 C 63.648 196.902 65.443 197.426 67.185 197.287 C 68.927 197.148 70.616 196.345 71.837 194.913 C 72.45 194.193 72.889 193.381 73.157 192.531 C 75.738 193.426 78.721 192.713 80.596 190.511 C 81.157 189.853 81.581 189.11 81.857 188.316 C 84.547 189.505 87.812 188.851 89.814 186.501 C 91.819 184.148 91.953 180.821 90.364 178.345 C 91.079 177.959 91.735 177.438 92.292 176.784 C 92.294 176.782 92.308 176.766 92.31 176.763 C 94.763 173.885 94.416 169.547 91.537 167.095 L 91.356 166.94 L 95.39 162.205 C 96.589 160.797 98.252 158.31 98.983 155.95 L 99.096 155.596 C 99.567 154.079 100.331 152.693 101.368 151.476 L 104.499 147.8 L 105.317 148.497 C 105.787 148.897 106.396 149.094 107.011 149.045 C 107.626 148.996 108.196 148.704 108.596 148.235 L 118.624 136.465 C 119.457 135.488 119.34 134.02 118.362 133.187 L 118.362 133.187 Z " fill-rule="evenodd" fill="rgb(255,255,255)"/></g><g style="isolation:isolate"><g><path d=" M 79.339 80.42 L 78.486 81.424 C 77.722 81.344 76.967 81.228 76.221 81.077 L 77.198 79.922 L 77.704 80.064 L 78.122 80.162 L 78.184 80.18 L 79.339 80.42 L 79.339 80.42 Z  M 57.573 66.987 L 58.674 65.689 L 58.701 65.734 L 58.772 65.858 L 58.896 66.071 L 59.234 66.613 L 58.097 67.955 C 57.919 67.635 57.741 67.315 57.573 66.987 L 57.573 66.987 Z  M 64.183 75.213 L 64.138 75.178 C 63.685 74.787 63.241 74.378 62.814 73.961 L 64.68 73.046 C 64.92 73.259 65.16 73.481 65.409 73.685 C 65.417 73.694 65.417 73.694 65.426 73.703 L 65.444 73.721 L 64.183 75.213 L 64.183 75.213 Z  M 68.367 75.906 L 68.687 76.12 L 68.722 76.137 L 68.758 76.164 C 68.767 76.173 68.767 76.173 68.776 76.182 C 68.927 76.271 69.078 76.368 69.238 76.466 L 68.012 77.905 C 67.718 77.737 67.425 77.559 67.132 77.372 L 68.367 75.906 L 68.367 75.906 Z  M 61.437 69.652 C 61.651 69.918 61.873 70.185 62.104 70.443 L 60.878 71.891 C 60.655 71.633 60.433 71.366 60.22 71.091 L 61.437 69.652 L 61.437 69.652 Z  M 72.516 78.225 C 72.845 78.376 73.165 78.518 73.493 78.652 L 72.374 79.984 C 72.036 79.86 71.699 79.727 71.361 79.593 L 72.516 78.225 L 72.516 78.225 Z  M 56.897 62.145 L 55.982 63.237 C 55.734 62.482 55.52 61.727 55.343 60.954 L 56.116 60.048 C 56.16 60.208 56.213 60.359 56.267 60.51 C 56.267 60.519 56.276 60.519 56.276 60.528 L 56.382 60.812 L 56.435 60.981 L 56.897 62.145 L 56.897 62.145 Z  M 54.881 54.282 L 54.907 54.602 L 54.916 54.664 L 55.005 55.384 L 55.049 55.659 L 54.774 55.997 C 54.774 55.961 54.774 55.917 54.774 55.881 C 54.774 55.366 54.792 54.859 54.827 54.344 L 54.881 54.282 L 54.881 54.282 Z  M 83.692 80.917 L 83.79 80.926 L 84.599 80.935 L 85.016 80.935 L 84.741 81.264 C 84.243 81.344 83.737 81.415 83.23 81.459 L 83.692 80.917 L 83.692 80.917 Z  M 90.329 80.304 L 90.516 80.082 L 90.036 80.375 L 90.32 80.304 L 90.329 80.304 L 90.329 80.304 Z  M 98.485 72.068 L 98.218 72.308 L 98.165 72.353 L 98.112 72.397 L 97.392 73.01 L 97.348 73.046 L 96.619 73.596 L 96.557 73.641 L 96.521 73.668 L 95.82 74.147 L 95.704 74.218 L 95.606 74.272 L 94.993 74.645 L 94.576 74.876 L 94.478 74.929 L 94.354 74.991 L 94.131 75.116 C 91.173 76.573 87.912 77.328 84.616 77.301 C 82.493 77.292 80.379 77.017 78.326 76.466 L 78.237 76.439 L 78.175 76.422 L 77.269 76.164 L 77.038 76.084 L 76.923 76.049 L 76.221 75.809 L 75.883 75.684 L 75.785 75.649 L 75.19 75.418 L 74.737 75.222 L 74.71 75.213 L 74.151 74.965 L 73.653 74.734 L 73.129 74.476 L 72.632 74.209 L 72.107 73.925 L 71.619 73.65 L 71.095 73.33 L 71.015 73.277 L 70.633 73.037 L 70.153 72.717 L 70.082 72.664 L 69.966 72.593 L 69.655 72.37 L 69.042 71.917 L 68.9 71.811 L 68.705 71.669 L 67.763 70.913 L 66.866 70.114 L 66.688 69.936 L 66.555 69.821 L 66.555 69.812 L 66.013 69.288 L 65.746 69.012 L 65.657 68.914 L 65.195 68.435 L 64.893 68.088 L 64.831 68.026 L 64.431 67.564 L 64.076 67.12 L 63.703 66.658 L 63.365 66.205 L 63.019 65.734 L 62.708 65.281 L 62.379 64.774 L 62.095 64.33 L 61.766 63.779 L 61.73 63.708 L 61.535 63.38 L 61.189 62.731 L 61.126 62.615 L 61.02 62.402 L 60.611 61.549 L 60.576 61.487 L 60.54 61.407 C 59.127 58.342 58.39 55.011 58.372 51.634 C 58.363 49.591 58.665 47.557 59.27 45.602 L 59.349 45.353 L 59.394 45.229 L 59.429 45.122 L 59.589 44.678 L 59.856 44.003 L 59.891 43.905 L 59.945 43.781 L 60.3 43.008 L 60.336 42.946 L 60.353 42.901 L 60.78 42.084 L 60.807 42.031 L 61.295 41.222 L 61.366 41.107 L 61.553 40.805 C 61.944 40.227 62.361 39.667 62.805 39.143 C 64.671 36.949 67.017 35.225 69.655 34.088 C 72.329 32.951 75.208 32.373 78.113 32.391 C 81.08 32.409 84.021 32.942 86.793 33.99 C 89.778 35.101 92.541 36.727 94.967 38.788 C 97.916 41.267 100.306 44.349 101.976 47.814 C 103.522 51.013 104.34 54.513 104.357 58.058 C 104.366 60.314 103.993 62.562 103.256 64.703 C 102.518 66.844 101.381 68.826 99.915 70.558 C 99.471 71.091 98.991 71.597 98.485 72.068 L 98.485 72.068 Z  M 86.136 84.702 L 86.127 84.702 L 85.896 84.746 C 84.279 85.057 82.635 85.208 80.983 85.208 C 80.441 85.208 79.89 85.19 79.348 85.155 C 79.33 85.155 79.312 85.155 79.295 85.155 L 79.392 85.155 L 79.348 85.155 L 79.304 85.164 L 79.161 85.146 L 79.117 85.146 C 76.852 84.986 74.613 84.56 72.445 83.876 C 72.445 83.876 72.436 83.876 72.436 83.867 L 72.312 83.831 L 72.312 83.831 C 68.456 82.578 64.884 80.588 61.793 77.968 C 59.803 76.28 58.035 74.352 56.515 72.228 C 56.427 72.122 56.338 72.006 56.276 71.882 C 55.334 70.522 54.508 69.092 53.806 67.6 L 53.735 67.457 C 53.735 67.457 53.735 67.457 53.735 67.457 C 52.757 65.352 52.038 63.14 51.593 60.865 L 51.585 60.821 L 51.558 60.661 C 51.265 59.097 51.123 57.498 51.123 55.908 C 51.114 53.234 51.549 50.577 52.42 48.045 C 53.308 45.495 54.667 43.123 56.409 41.053 C 57.013 40.351 57.661 39.676 58.354 39.054 C 58.861 38.264 59.421 37.508 60.034 36.789 C 62.246 34.177 65.035 32.116 68.18 30.756 C 71.326 29.424 74.71 28.74 78.122 28.757 C 81.516 28.766 84.874 29.379 88.055 30.57 C 91.431 31.831 94.567 33.67 97.321 36.007 C 100.67 38.823 103.38 42.324 105.272 46.277 C 107.04 49.946 107.973 53.971 108 58.058 C 108.009 60.732 107.565 63.388 106.694 65.92 C 105.797 68.47 104.446 70.842 102.696 72.912 C 102.092 73.632 101.434 74.307 100.741 74.938 C 100.235 75.72 99.684 76.475 99.08 77.186 C 97.419 79.149 95.429 80.802 93.19 82.072 C 90.995 83.325 88.614 84.204 86.136 84.702 C 86.127 84.702 86.118 84.702 86.109 84.702 L 86.162 84.693 L 86.136 84.702 L 86.136 84.702 Z " fill-rule="evenodd" fill="rgb(255,255,255)"/></g><g><path d=" M 17.309 62.561 L 16.303 63.745 C 15.401 63.651 14.51 63.514 13.63 63.336 L 14.783 61.974 L 15.38 62.141 L 15.873 62.257 L 15.946 62.278 L 17.309 62.561 L 17.309 62.561 Z  M -8.371 46.713 L -7.071 45.182 L -7.04 45.235 L -6.956 45.381 L -6.809 45.633 L -6.411 46.272 L -7.752 47.855 C -7.962 47.478 -8.172 47.1 -8.371 46.713 L -8.371 46.713 Z  M -0.573 56.418 L -0.625 56.377 C -1.16 55.915 -1.684 55.433 -2.187 54.941 L 0.014 53.861 C 0.297 54.113 0.58 54.375 0.874 54.616 C 0.884 54.626 0.884 54.626 0.895 54.637 L 0.916 54.658 L -0.573 56.418 L -0.573 56.418 Z  M 4.364 57.236 L 4.742 57.488 L 4.783 57.509 L 4.825 57.54 C 4.836 57.55 4.836 57.55 4.846 57.561 C 5.025 57.666 5.203 57.781 5.391 57.896 L 3.945 59.594 C 3.599 59.395 3.253 59.186 2.907 58.966 L 4.364 57.236 L 4.364 57.236 Z  M -3.811 49.857 C -3.56 50.172 -3.298 50.486 -3.025 50.79 L -4.472 52.498 C -4.734 52.194 -4.996 51.88 -5.247 51.555 L -3.811 49.857 L -3.811 49.857 Z  M 9.259 59.972 C 9.647 60.15 10.024 60.318 10.412 60.475 L 9.091 62.047 C 8.693 61.9 8.295 61.743 7.897 61.586 L 9.259 59.972 L 9.259 59.972 Z  M -9.167 41 L -10.247 42.289 C -10.541 41.398 -10.792 40.508 -11.002 39.596 L -10.09 38.527 C -10.037 38.715 -9.975 38.893 -9.912 39.072 C -9.912 39.082 -9.901 39.082 -9.901 39.093 L -9.775 39.428 L -9.712 39.627 L -9.167 41 L -9.167 41 Z  M -11.547 31.724 L -11.515 32.101 L -11.505 32.175 L -11.4 33.024 L -11.348 33.349 L -11.673 33.747 C -11.673 33.705 -11.673 33.653 -11.673 33.611 C -11.673 33.003 -11.652 32.405 -11.61 31.797 L -11.547 31.724 L -11.547 31.724 Z  M 22.445 63.148 L 22.56 63.158 L 23.514 63.169 L 24.007 63.169 L 23.682 63.556 C 23.095 63.651 22.497 63.735 21.9 63.787 L 22.445 63.148 L 22.445 63.148 Z  M 30.275 62.424 L 30.495 62.162 L 29.929 62.508 L 30.264 62.424 L 30.275 62.424 L 30.275 62.424 Z  M 39.897 52.708 L 39.582 52.991 L 39.519 53.043 L 39.456 53.096 L 38.607 53.819 L 38.555 53.861 L 37.696 54.511 L 37.622 54.563 L 37.58 54.595 L 36.752 55.161 L 36.616 55.245 L 36.501 55.307 L 35.777 55.748 L 35.285 56.02 L 35.169 56.083 L 35.023 56.156 L 34.761 56.303 C 31.27 58.022 27.424 58.913 23.535 58.882 C 21.03 58.871 18.535 58.546 16.114 57.896 L 16.009 57.865 L 15.936 57.844 L 14.867 57.54 L 14.594 57.446 L 14.458 57.404 L 13.63 57.121 L 13.232 56.974 L 13.116 56.932 L 12.414 56.66 L 11.879 56.429 L 11.848 56.418 L 11.188 56.125 L 10.601 55.852 L 9.982 55.549 L 9.395 55.234 L 8.777 54.899 L 8.2 54.574 L 7.582 54.196 L 7.488 54.134 L 7.037 53.851 L 6.471 53.473 L 6.387 53.41 L 6.251 53.326 L 5.884 53.064 L 5.161 52.53 L 4.993 52.404 L 4.763 52.236 L 3.651 51.345 L 2.593 50.402 L 2.383 50.192 L 2.226 50.056 L 2.226 50.046 L 1.587 49.427 L 1.272 49.102 L 1.167 48.987 L 0.622 48.421 L 0.266 48.012 L 0.193 47.939 L -0.279 47.394 L -0.698 46.87 L -1.139 46.325 L -1.537 45.79 L -1.946 45.235 L -2.313 44.7 L -2.7 44.103 L -3.036 43.579 L -3.424 42.929 L -3.465 42.845 L -3.696 42.457 L -4.105 41.692 L -4.178 41.556 L -4.304 41.304 L -4.786 40.298 L -4.828 40.225 L -4.87 40.13 C -6.537 36.514 -7.407 32.583 -7.427 28.601 C -7.438 26.19 -7.082 23.789 -6.369 21.484 L -6.275 21.19 L -6.222 21.043 L -6.18 20.918 L -5.992 20.393 L -5.677 19.597 L -5.635 19.482 L -5.572 19.335 L -5.153 18.423 L -5.111 18.35 L -5.09 18.297 L -4.587 17.333 L -4.556 17.27 L -3.979 16.316 L -3.895 16.18 L -3.675 15.824 C -3.214 15.142 -2.721 14.482 -2.197 13.863 C 0.004 11.275 2.771 9.241 5.884 7.899 C 9.039 6.558 12.435 5.877 15.862 5.898 C 19.363 5.918 22.833 6.547 26.103 7.784 C 29.625 9.094 32.884 11.013 35.746 13.444 C 39.226 16.369 42.045 20.006 44.016 24.093 C 45.84 27.867 46.804 31.997 46.825 36.179 C 46.835 38.841 46.395 41.493 45.525 44.019 C 44.655 46.545 43.314 48.882 41.584 50.926 C 41.06 51.555 40.494 52.153 39.897 52.708 L 39.897 52.708 Z  M 25.327 67.613 L 25.317 67.613 L 25.044 67.665 C 23.137 68.032 21.198 68.21 19.248 68.21 C 18.609 68.21 17.959 68.189 17.319 68.147 C 17.298 68.147 17.277 68.147 17.257 68.147 L 17.372 68.147 L 17.319 68.147 L 17.267 68.158 L 17.099 68.137 L 17.047 68.137 C 14.374 67.948 11.733 67.445 9.175 66.638 C 9.175 66.638 9.165 66.638 9.165 66.628 L 9.018 66.586 L 9.018 66.586 C 4.469 65.108 0.255 62.76 -3.392 59.668 C -5.74 57.676 -7.826 55.402 -9.618 52.897 C -9.723 52.771 -9.828 52.635 -9.901 52.488 C -11.012 50.884 -11.987 49.197 -12.815 47.436 L -12.899 47.268 C -12.899 47.268 -12.899 47.268 -12.899 47.268 C -14.052 44.784 -14.901 42.174 -15.425 39.491 L -15.435 39.438 L -15.467 39.25 C -15.813 37.405 -15.98 35.518 -15.98 33.642 C -15.991 30.487 -15.477 27.353 -14.45 24.366 C -13.402 21.358 -11.798 18.559 -9.744 16.117 C -9.031 15.289 -8.266 14.492 -7.448 13.759 C -6.851 12.826 -6.191 11.935 -5.467 11.086 C -2.858 8.004 0.434 5.573 4.144 3.969 C 7.855 2.397 11.848 1.59 15.873 1.611 C 19.877 1.621 23.839 2.344 27.591 3.749 C 31.574 5.237 35.274 7.407 38.524 10.163 C 42.475 13.486 45.672 17.616 47.905 22.28 C 49.99 26.609 51.091 31.357 51.122 36.179 C 51.133 39.334 50.609 42.468 49.582 45.455 C 48.523 48.463 46.93 51.262 44.865 53.704 C 44.152 54.553 43.376 55.349 42.559 56.094 C 41.961 57.016 41.312 57.907 40.599 58.745 C 38.639 61.062 36.291 63.011 33.65 64.51 C 31.061 65.988 28.252 67.026 25.327 67.613 C 25.317 67.613 25.306 67.613 25.296 67.613 L 25.359 67.602 L 25.327 67.613 L 25.327 67.613 Z " fill-rule="evenodd" fill="rgb(255,255,255)"/></g></g></g></svg>